<?xml version="1.0" encoding="utf-8"?>
<!-- Generator: Adobe Illustrator 27.8.0, SVG Export Plug-In . SVG Version: 6.00 Build 0)  -->
<svg version="1.1" id="Layer_1" xmlns="http://www.w3.org/2000/svg" xmlns:xlink="http://www.w3.org/1999/xlink" x="0px" y="0px"
	 viewBox="0 0 400 400" style="fill: rgba(0, 0, 0, 0.2);" xml:space="preserve">
<g id="neWXtS.tif">
	<g>
		<path d="M221.7,210.9c-1.3-1.5-1.5-2.1-3.4-2.2c-1-0.1-2.8,0-3.8,0.5c-1.1,0.5-1,1.7-2.5,1.8c-1,0.1-2.9-1.4-3.7-2
			c-1.3-0.9-2.6-3.1-4.3-2.9c-1.2,0.1-4,2.4-4.6,3.4c-1,1.3-1.3,2-2.8,3c-1.6,1.1-3.1,2.1-4.8,2.9c-3,1.4-5.3,3.5-8.2,4.9
			c-1.8,0.9-3.4,2.3-5.3,3.2c-2,0.9-4.5,1.3-6.4,2.3c-2.8,1.5-5.7,3-8.6,4.7c-2.5,1.4-8.1,1.7-9.7,4c1.3,1.5-0.1,3.4-0.6,4.7
			c-0.2,0.5,0.4,0.6,0.3,1c-0.1,0.6-0.5,1.1-0.6,1.7c-0.3,1.6-0.1,3.1-0.5,4.7c-0.1,0-0.2,0-0.3,0c0.2,0.2,0.5,0.4,0.7,0.6
			c0,0.9-1.5,2.7-1.7,3.5c-0.2,0.7,0.1,1.1,0,1.8c-0.1,1-0.5,1.9-0.6,2.9c-0.5,3.5-0.2,6.7,0,10.1c0.1,1.6,0.5,3,0.7,4.6
			c0.2,1.6-0.3,3.6-0.1,5.3c0.3,2.9,1.1,5.3-0.5,8c-1.2,2.1-3.1,6-6.4,5.2c-1.1-0.3-2.5-1.6-3.5-2.2c-1.7-1-3.4-2.2-4.7-3.8
			c-1.5-1.7-1.7-3.2-1.7-5.4c0-0.9-0.3-2.7,0-3.5c0.3-0.8,0.6-0.7,1-1.2c0.4-0.6,2-2.3,2.2-2.9c0.2-0.5-0.7-2.1-0.6-2.9
			c0.1-1.5,0.2-1.7,1.3-2.5c-0.2-0.5-0.4-1.1-0.6-1.8c1.2,0.3,2.4,0.5,3-1c0.4-1-0.6-1.9-0.2-2.8c0.2-0.3,1-0.4,1.3-0.7
			c0.4-0.4,0.5-0.9,0.8-1.3c0.9-1.1,1.3-2.2,2.9-0.9c1.7-1,1.3-4.9,1.5-6.7c-1.6,0.1-1.6-2.3-2.1-3.4c-0.8-1.6-2.3-2.7-1-4.4
			c-1.7-2.7-7.7-0.3-10.3-0.3c-0.8,0-1.6,0.1-2.4-0.1c-0.9-0.2-1.4-1-2.3-1.3c-1.8-0.6-2.7,1.8-4.4-0.3c-0.6,1-3.1,1.2-4.2,0.9
			c-2.3-0.7-1.3-2.2-2.1-3.6c-0.3-0.5-1.9-1.3-2.4-1.2c-0.7,0.1-0.4,1.5-1.4,1.5c-0.6,0-1.6-1.2-2.1-1.6c-1.9-1.2-1-0.2-1.4-2.3
			c-0.3-2.3-2.7-2.5-4.1-3.8c-2.5-2.4-4.6-7.3-5.9-10.4c-0.5-1.2-0.2-2.6-0.6-3.5c-0.6-1.6-1.4-2.8-1.8-4.6c-0.2-1-0.5-2.4-0.5-3.5
			c0-1,0.6-1.9,0.5-2.9c-0.3-2.2-1.2-3.9-0.8-6.3c0.4-2,0.9-4.1,1.5-6c0.6-2.2,1.8-3.3,2.9-5.1c0.9-1.5,0.9-2.8,2.4-4
			c1.4-1.1,2.2-1.6,2.5-3.4c0.1-0.6-0.2-0.8,0-1.5c0.3-0.7,1.5-1.5,2-2.1c1.1-1.7,2.5-3.1,3.7-4.7c1.3-1.9,3.6-2,4.9-3.7
			c1.5-2,0.1-3.8,0.5-5.9c-2.6-0.2-4-1.8-5.7-3.4c-1.3-1.3-3-1.9-4.5-2.9c-1-0.6-1.9-1.6-2.9-2.1c-1.2-0.6-1.2-0.3-2.6-0.2
			c-1.1,0.1-1.2,0.2-2.3-0.3c-0.7-0.4-3.3-1.8-1.9-2.8c-0.8-0.6-1.9-1.2-2.6-2c-0.4-0.5-0.4-1-0.9-1.4c-0.5-0.4-1.3-0.1-1.9-0.4
			c-0.8-0.4-1.9-1.8-2.5-2.5c-1.9-2.1-1.3-1.9-0.4-3.9c0.2-0.5-0.3-0.6-0.2-0.9c0.3-0.7,0.7-1.2,1.2-1.9c-0.8-0.4-2.4-0.6-2.9,0.5
			c-0.2,0.6,0.9,1.5,0.6,2c-0.6,0.8-3-2.4-3.4-2.8c-0.4-0.4-1.2-0.8-1.6-1.2c-0.7-0.6-1.6-1.5-2.1-2.3c-1.3-1.9-2.5-3.3-4.2-4.9
			c-0.9-0.9-1.7-1.9-2.4-2.9c-0.4-0.4-1.7-1.6-1.9-2c-0.4-0.7-0.2-1.5-0.6-2.2c-0.5-0.8-1-0.7-1.4-1.7c-0.5-1.3-1.8-4.7-0.3-5.7
			c1-0.7,1.7,0,2.8,0c1.4,0,2.6-0.5,3.9-0.8c0.7,1.1-0.5,1.2-1.5,1.7c0.9,0.2,1.6,0.4,2.2,0.5c-1.4,2.6,2.6,2.5,4,3.3
			c0.8,0.4,1.5,2,2.5,2.1c1.5,0.1,1.8-1.9,1.9-2.9c0.9,0.4,2.1,1,2.9,1.1c0.7,0.1,0.9-1.3,1.5-0.1c-0.4,0.8-0.4,2.3,0.7,2.8
			c0.9,0.4,2.6-1,3.3-1.4c0.3,0.6,0.5,1.3,0.9,2.1c-0.4,0.1-0.8,0.3-1.2,0.4c0.9,0.7,2.5,1.6,3.1,2.6c1,1.6-0.2,1.2,0.1,2.6
			c0.1,0.6,1.7,2.2,2.1,2.6c0.5,0.4,1.8,0.8,2.1,1.3c0.4-0.5,1.5-2.6,2.1-2.9c0.6-0.3,0.6,0.5,1.1,0.7c1.8,0.7,1.6,4.4,3.2,4.3
			c0,0.7,0,1.3,0,2.1c-1.6,0.8-1-3-3.7-1.1c1.4,1.7,2.7,3.4,4,5.2c0,0,0.1,0.1,0.1,0.1c1,2.6,2.7,3.5,4.5,5.4c1.9,2,2.5,2.1,5.1,2.6
			c2.2,0.4,4,2.6,5.3,4.2c0.7,0.9,2.1,4.8,3.6,4.6c1.1-0.1,0.6-1.3,0.9-1.9c0.5-0.8,1.1-1.4,1.6-2.1c1.2-1.7,2.8-3.1,3.8-4.9
			c1-1.7,1.6-3.1,3-4.7c0.9-1,1.8-1.8,2.5-2.8c0.2-0.3,0.9-1.3,1-1.7c0.2-0.2,0.4-0.4,0.5-0.7c0.2-0.4,0.1-0.7-0.3-0.9
			c0.7-1.5,2.3-2.3,3-3.9c1-2.4-0.6-2-1.7-3.8c-0.5-0.8-0.3-2.1-1-2.8c-0.3-0.3-1.3-0.5-1.6-0.7c-1.1-0.8-2.2-2-3.3-2.9
			c-1.3-1-2.6-2.7-3-4.3c-0.2-0.3-0.3-0.5-0.5-0.8c-0.2-0.6-0.1-1.1,0.5-1.5c-0.3-0.7-0.9-0.3-1.2-0.8c-1-1.5-2.6-2.7-4.1-3.7
			c-0.6,1.4-2.2,0.5-2.9-0.2c-1.3-1.2-0.7-2.1-1.6-3.4c-0.6-0.9-2.1-1.8-2.9-2.7c-1-1.2-1.8-2.3-2.5-3.7c-1.8-3.2-4.1-6-5.9-9.2
			c-0.6-1.1-4.5-4.1-2.8-5.3c-2.1-0.3-1.7-3.2-2.5-4.6c-0.9-1.8-2.4-3.4-3.3-5.2c-0.7-1.3-0.3-3.7,0.3-5c0.5-1.1,3.2-3.4,4.5-2.8
			c-0.2,0.5-0.4,1.1-0.6,1.7c0.1,0.1,0.2,0.1,0.3,0.2c2.1-1.7,3.3,2,4.1,3.4c0.2-0.5,0.4-0.9,0.6-1.2c0.8,0.4,2.7,0.9,3,2
			c0.2,0.7-1.1,3.2-1.3,3.9c0.6,1,1.1,2,2.1,2.7l0,0c0,0.7,1.3,3.6,1.5,1.5c0,0,0,0,0,0c0.7-0.1,1.5-0.2,2.4-0.4
			c0.1,0.8,0.2,1.8,0.3,2.7c0.1,0,0.2,0,0.3,0.1c0.4-0.8,0.5-1.9,1.5-1.9c-0.8-1.5-1.9-2.6-1.4-4.3c-1.5-1.4-1.3-2.9-2.7-4.4
			c-0.6-0.6-2.9-2.1-2.3-3.2c0.3-0.7,1.5-0.9,2.1-0.7c1.4,0.3,1,1.5,1.8,2.1c0.6,0.4,1.3,0.3,1.8,0.6c1.5,1.1,1.5,2.8,2,4.2
			c0.4,1.4,0.9,2.9,2.2,3.9c0.7,0.6,1.8,0.6,2.6,1.1c1.2,0.7,1.8,1.7,2.5,2.9c1.2,1.9,2.2,3.9,3.2,5.8c0.4,0.8,0.3,1.9,0.6,2.5
			c0.5,1,0.7,0.5,1.5,1.1c-0.4,0.7-0.8,1.3-1.2,1.9c-0.2-0.2-0.5-0.3-0.8-0.5c-1.2,2,3.7,2.2,1.5,4.2c0.9,1.9,2.2,3.5,3,5.2
			c0.9,1.9,2,3.9,3.1,5.9c2.2,4,5.1,8.6,8.6,11.6c1.8-1.6,2.9-3.6,4.5-5.1c1-1,3.3-0.7,3.8-2.2c0.4-1.3-1.1-3.2-1.8-4.1
			c-0.7-0.9-1.5-1.8-2.1-2.9c-0.7-1.2-0.7-2.2-1.3-3.4c-1.7-3.9-3.9-7.2-6.9-10.3c-1.1-1.2-2.1-1.7-2.9-3.3
			c-1.1-2.2-1.5-4.6-3.1-6.4c1.5-2.3-0.3-1.4-1.5-2.8c-0.5-0.6-0.2-1.3-0.5-1.9c-0.5-0.9-0.9-0.9-1.5-1.6c-1.1-1.2-1.2-3-2-4.5
			c-1.1-2.1-1-2,0.3-4.1c-1.4-2-1.6-2.4-1.7-4.6c-0.1-1-0.5-1.9-0.5-3c0.1-1.2,0.5-2.1,0.4-3.4c-0.1,0-0.2,0-0.3,0
			c0.4-0.6,0.8-1.2,1.3-1.9c-0.5-0.2-0.9-0.3-1.3-0.5c1.2-1.9,1.7-2.2,2.9-1.7c-1,1.5,0.7,3.5,1.6,2c0.9-1.6-1.8-3.1-1.1-4.6
			c-0.1,0.1,2.1-1.2,2.1-1.1c0.7-0.5,1.5-2,2.4-2.2c2-0.5,2.8,2.1,4.6,2.6c-0.7,2.1-0.7,2.1-3,2.1c-0.5-0.9-1.1-1-2.1-0.1
			c0.7,0,1.4,0.1,2.1,0.1c0,1.6,2.2,2.4,3,3.6c0.8,1.2,0.8,3.5,2.1,4.3c1.3,0.7,4.3,0,5.8,0.3c2.4,0.4,3,0.6,4.2,2.5
			c0.8,1.4,0.8,1.9,1.2,3.7c0.4,2,1.8,3.6,2.1,5.6c0.2,1-0.1,2,0.1,3c0.2,1,0.9,1.7,1,2.7c0.3,2-1.5,2.8-0.2,4.7
			c-1.3,0.5-0.8-0.4-1.7-0.8c-1.4-0.6-1.7,0.4-2.9,1.7c2.4,0.7,1,1.8-0.4,3c0.8,0.1,2.6,0,2.6,1.1c0,1.2-1.5,0.4-1.9,0.9
			c-1.2,1.5,1.3,1.9,2.5,2.8c-0.6,0.5-1,1.1-1.8,1.3c0.4,3.3,1.4,5.7,2.9,8.6c1.2,2.5,1.2,5.3,4.3,5.6c1.5,0.1,2-0.3,3.3-0.6
			c1.6-0.4,3.3,0,4.9-0.5c3.1-0.9,5.6-2.2,8.9-2.2c-0.8-1.9,0.9-2.6,1.5-4c0.6-1.2-0.2-3.1,1.8-3.2c-1.1-1.8-0.1-2.2,0.1-3.9
			c0-0.4-0.7-0.8-0.6-1.1c0.1-0.8,0.8-1.3,1.4-1.8c-1.3-0.8,0.6-1.8,1-2.6c0.5-1.2,0.1-3.2,0.1-4.5c0-1.8-0.2-3.6,0.3-5.3
			c0.4-1.4,1.2-2.7,1.5-4.1c0.2-0.7,0.2-2.2,0.2-2.7c-0.1-0.7-0.6-1.3-0.5-2.2c0-0.9,0.7-1.5,0.8-2.4c0.3-3.1-0.6-6.6,0.2-9.7
			c0.3-1.4,1.2-2.7,1.5-4.1c0.1-0.5,0.3-1.4,0.3-1.9c-0.2,1.7,0.7-4.4-0.1-1.1c0.5-1.9,0.8-3.6,1-5.4c0.2-1.8,0.8-4,1.2-5.4
			c0.3-1.1,0.9-3.3,1.4-4.3c0.5-0.9,2.7-2,1-2.8c1.2-1.2,1.4-2.4,2.3-3.6c1.4-1.8,4.3-3.2,6.1-4.7c0.5,0.6,1,2.5,1.5,2.9
			c0.7,0.5,1.5,0.1,2.2,0.2c1.9,0.4,2.5,1.4,3.3,3.1c0.4-0.1,0.8-0.2,1.2-0.3c0.6,2.6,1.3,3.2-0.7,5.1c3.1,1.6,2.9,2.6,2.5,5.9
			c-0.3,2.9-0.9,5.9-1.5,8.7c-1,5-2.1,10.7-4.8,15c0.2,0.2,0.4,0.4,0.7,0.6c-0.1,0-0.2,0-0.3,0c-0.4,1.7-0.5,3.5-1.7,5
			c-0.4,0.5-1,0.6-1.4,1.2c-0.4,0.6-0.3,1.3-0.7,1.9c-0.3,0.4-1.2,0.4-1.4,0.7c-0.4,0.9,0.5,0.6,0.4,1.5c-0.3,1.5-1.1,1.6-1.9,2.6
			c0.7,0.8,0.9,1.7,0.4,2.8c-0.3-0.2-0.6-0.3-1.1-0.6c-0.1,1-0.2,1.8-0.3,2.9c-1.1-1.2-2.4,0-2.8,0.9c-0.1,0.2,0.3,0.9,0.1,1.4
			c-0.1,0.3-0.9,0.7-1.1,1l0,0c-1.6,0.1-1.6,0.1-1.8,1.5l0,0c-1.5,0.1-1.2,0.5-1.6,1.8c-0.6,1.8-0.8,1.5,0.8,2.6
			c0.9,0.6,2.4,1.1,1.6,2.6c-0.3,0.5-1,0.3-1.4,0.8c-0.3,0.4-0.2,1.5-0.4,2c-2.4-1.6-2.1,1.2-2.4,3c0.6,1.6,2.1,4.2,1.9,5.9
			c-0.3,2.1-1.2,2.1,1.7,2.2c2.6,0.1,5.4-0.3,7.9,0.2c1.4,0.3,2.2,0.8,3.8,0.4c2.1-0.6,1.4-1.4,2.1-3c0.6-1.5,1.6-3.3,2.3-4.8
			c1.2-2.6,3-5.1,4.8-7.4c1.1-1.4,2.3-2.6,3.4-4c1.1-1.4,2.6-2.2,3.7-3.5c1.9-2.2,3.2-5.7,4.6-8.3c0.8-1.7,1.3-3,2.7-4.4
			c1.2-1.2,2-2.8,3.1-3.9c0.4-0.4,1.3-0.4,1.7-0.8c0.5-0.5,0.1-1.5,0.6-2c1-1.3,2.8-1,4.3-1.1c-1.3-3.4,3.1-5.7,4.9-8.1
			c1.6-2.2,3.5-5.1,6-6.1c2-0.8,5.7-0.6,7.5,1c0.7,0.6,1.6,2,2.1,2.8c1,1.4,2.1,2.9,1.6,4.7c1.7,2.2-2.1,6.5-3.1,8.4
			c-0.3-0.2-0.6-0.4-0.9-0.6c-2,1.6-2,1.6-4-0.1c-0.6,1.1-1.2,2.1-1.9,3.2l0,0c-4.3,0.9,1.3,2.4,2,3.9c0.2,0.4-0.1,1.4-0.1,1.9
			c0.1,1.2,1,3-1.1,3.1c1.5,3.8-4.9,9.9-7.3,12.8c-1.8,2.1-3.5,4.1-5.8,5.7c-2.1,1.5-3.7,1.5-6.1,2c-1.5,0.3-3.5,1.2-4.9,2
			c-1.1,0.6-1,1.2-1.3,2c0.3,0.4,0.4,0.9,0.1,1.3c-0.4,0.3-0.9,0.6-1.3,0.9c-0.9,0.7-2.1,1.1-2.9,1.9c-0.9,1-0.6,1.6-1.1,2.5
			c-1.6,2.6-2.3-0.7-4.6,0.2c0.9,1.5,0.8,2.6-0.3,3.5c2.8,2,4.6,4,6.9,6.5c0.7,0.8,1.3,1.7,2.5,1.7c0.6,0,0.9-0.6,1.4-0.7
			c0.3,0,1.6,0.6,1.8,0.6c0.1,0,0.7-1.4,0.8-1.5c0.2-0.2,0.9-0.4,1.2-0.6c1.5-0.9,2.8-1.7,4.2-2.8c1.2-0.9,2.7-1.3,3.8-2.3
			c1.1-1,0.5-0.8,1.9-1.5c0.7-0.3,1.2-0.6,1.8-1.1c2-1.7,3.9-3.1,5.9-4.8c2-1.8,5-3.3,6.8-5.3c1.4,1,1.4,0.1,2.4-0.9
			c1.3-1.4,2.6-2,4.3-2.8c1.2-0.5,1.5-1.5,2.4-2c1.2-0.6,3.5,0.8,4.6,1.2c1-1.6,2-3.4,4.2-4.1c-0.5-0.2-0.6-0.7-1-1
			c-0.3-0.1-0.6,0.5-1.2,0.1c-1.8-1.2-0.4-1.6,0.6-2.4c1.9-1.5,4.9-6.4,7.8-3.8c1-1.9,2.7-0.8,4.8-1.7c2-0.8,3.6-1.9,5.9-1.8
			c-0.1,0.9-0.9,1.4-1,2c0,0.3,0.5,1.6,0.5,1.7c-0.6,1.4-3,0.5-3.2,2.3c-0.2,1.8,2.6,1.3,2.9,2.9c0.3,1.5-1.6,2.8-3,2
			c-0.1,0.7,0.1,2.4-0.9,2.4c0-3.4-3.4-0.1,0,0c0,0.8,0,1.5,0,2.3l0,0c-2-0.1-2.8-1.1-4,0.2c-0.4,0.5,0.1,1.1-0.5,1.5
			c-0.4,0.3-1.9,0.1-2.3,0.1c-2,0.2-2,0.5-2.3,2.3c-0.5,2.3-0.1,1.8,1.5,3.1c1.3-0.7,4.4-1.8,2.8,1.3c-0.7,1.4-2.3,0.3-1,2.7
			c-0.3,0.1-1.7,0.1-2,0.5c-0.6,0.9,0.5,1,0.4,1.9c-0.2,1.9-1,1.3-2.5,2c-1.5,0.7-2.7,2.3-4.1,3.2c-1.8,1.2-3.9,1.8-5.7,3
			c-3.2,2-6.6,3.2-10,4.7c-3,1.3-4.2,1.4-7-0.6c-0.1,0.8-0.2,1.6-0.4,2.3c-0.1,0-0.2,0.1-0.3,0.1c-0.8-1.2-0.9-1.8-1.3-3.2
			c-0.7,2-3.6,2.2-3.8-0.1c2.9-0.1,2.3-1.2,0.1-2.4c0,0.8-0.1,1.6-0.1,2.4c-1.3,0.3-1.4,0.9-2.1-0.6c-1.1,0.5-1.9,0.8-2.9,1
			c-1.3,0.3-1-0.5-2,1c-1.3-0.9-0.8-0.2-2.1,0c-0.2,0-1.2-0.4-1.1-0.5c-1.8,1.4,0.3,2.5-3.1,2.1c0-0.1,0-0.2,0-0.3
			c-0.4,0.3-0.8,0.6-1.3,1c1.4,1.2,0,1.4,0.1,2.2c0.1,0.7,0.8,1.1,0.9,1.9c0.5,2.6-2.1,3.6-3.7,4.9c0-0.1,0-0.2,0-0.3
			c-2.1-0.1-1.8-0.2-1.8,1.6c0,0.5,0.6,0.6,0.4,1c-0.1,0.4-0.6,0.3-0.7,0.8c1.3,0.5,1.2,4.9,1.9,6.4c0.9-0.3,2.2-1.2,3.1-1.2
			c0.8,0,1.3,0.6,2.2,0.6c1.3-0.1,2.4-0.7,3.8-0.5c1.8,0.3,2.6,0,4.5-0.2c2.4-0.3,2.7,0.7,4.5,1.5c0.2,0.6,0.5,1.1,0.7,1.7
			c-0.2,1.3,0.5,1.7,1.8,1.7c0,0.1-0.1,0.2-0.1,0.3c-0.8,0.5-1.6,1.1-2.4,1.5c-0.6,0.3-1.3,0.3-1.9,0.6c-1.4,0.8-2.6,2.1-3.9,2.9
			c-3.1,1.8-6.7,3-10.4,3.9c-2.1,0.5-2.7,0.8-2.8,3c-0.1,1.4-0.2,3.2,1.7,3.4c0.6,0.1,1.4-0.5,2.1-0.4c0.7,0.1,1.4,0.4,2,0.7
			c1.7,0.7,2.9,1.8,4.1,3.2c0.2-0.2,0.4-0.5,0.7-0.8c2,2.9,5.6,2.9,8.1,4.9c0.7-1.4,2.4-1.1,3.5-0.5c0.5,0.3,0.7,1,1.3,1.2
			c1,0.4,1.2-0.4,2.2-0.4c1.3-0.1,2.5,0.6,3.9,0.5c1.8-0.1,2.5-0.4,4.4-0.1c1.3,0.2,2.7-0.1,4,0.1c2.2,0.3,3,0,5.2-0.4
			c2.1-0.4,6.1-0.1,6.5,2.7c1.2-1.5,3.5,0.1,5.1,0.4c1.6,2,4.8,2.6,5.6,5.3c0.2,0.8-0.5,2.1-0.2,2.7c0.2,0.4,2.3,0.7,2.7,0.9
			c-1.1,1.7-1.9,0.8-3.6,1.3c-0.8,0.2-3.7,1.3-4.3,1.9c-1.3,1.2,0.1,1.9,0,3.3c-0.2,1.8-2.1,2-3.5,2.5c-0.3-0.2-0.8-0.4-1.3-0.7l0,0
			c0-0.7-0.1-1.4-0.1-2.4c-1,0.8-1.6,1.3-1.4,2.4l0,0c-1.6,0.9-1.8,0.9-3.4,0.3c-1.4-0.5-2.9-0.7-4.4-1.1c-2.6-0.7-5.2-1.6-7.5-3.3
			c-1-0.7-1.8-1.5-2.7-2.3c-0.7-0.6-2.6-1.3-2.8-2.3c-0.2-1.1,1.5-1.6,1.4-2.6c-0.1-1-2.2-1.5-2.9-1.7c0,0,0,0,0,0
			c-0.3-1-3.9-1.6-4.7-1.2c0.9,1.4,0.7,2.7-1,1.8c-0.1-0.3-0.2-0.7-0.3-1c-0.3-0.2-0.7-0.3-1-0.5c-0.4-0.7-1-0.7-0.4-1.8
			c-0.8-0.6-2.2,0.3-2.6-0.9c-0.9,0.3-1.7,0.7-2.5,0.9c0.1,0.5,0.2,1.1,0.3,1.6c-0.4-0.1-0.7-0.1-1.2-0.2c-0.1,0.9-0.1,1.4-0.6,2.2
			c-0.3-0.2-1-1.1-1.4-1.2c-1.2-0.4-1.1,0.3-2.3,0.3c-1.4,0-2.9-1.3-4.3-1.7c-3-1-5.2-2.5-8.3-3.5c-1.4,0.7-2.1,4.7-2.7,6
			c-0.4,1-2.6,4-1.8,4.4c-1.3,1.5-2.5,2.7-3.3,4.5c-0.8,1.8-1.4,3.1-2.8,4.5c1.5,1.2,3,1.7,4.5,2.7c1.3,0.9,1.9,1.9,3.6,2.5
			c1.6,0.6,2.1,0.9,3.3,1.6c1.3,0.9,2.7,2.3,4.1,0.9c2.1,0.6,4.2,1.2,6.3,1.9c2.3,0.8,4.9,0.7,6.9,2.1c0.8,0.5,0.3,0.9,1.4,1.3
			c0.5,0.2,1.9,0.1,2.4-0.1c2.4-0.8,1.3-1.8,3.9-1c3.8,1.2,6.3,4.1,8.8,7.1c0.5,0.6,0.6,1.2,1.2,1.9c0.5,0.6,1.4,0.8,1.7,1.6
			c0,0.1,0.1,2.5,0.1,2.6c-0.2,1.1-1.1,1.5-2.1,1.7c1,1.4-0.5,2.1-1.3,3c-0.3,0.4-0.4,0.9-0.8,1.2c-0.4,0.3-1.3,0.3-1.6,0.6
			c-0.8,0.6-0.7,1.9-1.8,2.2c-1.4,0.4-1.8-1.4-3-0.1c-1.4-0.5-2.4-0.9-3.6-1.8c-0.3,0.3-3.3-1-3.9-1.2c-2.2-0.6-3.5-2.3-5.5-3.4
			c-0.8-0.4-1.9-0.3-2.5-0.7c-1-0.6-0.7-1.2-1.2-2.1c-0.7-1.1-1.5-1.7-2.3-3.1c1.4-0.9-2-2-2.6-2.8c-0.3-0.4-0.9-0.4-1.1-0.9
			c-0.3-0.7,0.4-1,0.2-1.7c-0.3-1.4-2.3-2.6-3.3-3.5C222.5,210.5,222.1,210.7,221.7,210.9L221.7,210.9z M134.9,108.2
			c0-1,0-2.1-0.1-3.1C134,105.9,133.7,107.8,134.9,108.2c-1,3.1,0.1,5,3.1,2.6c-0.5-0.5-0.9-1.4-1.8-0.4c-1-1.4,0.7-1.2,1.1-2
			C136.4,108.3,135.6,108.3,134.9,108.2z M129,218.2c1.3,1.4,4.3-1.5,5.9-2.2c1.5-0.6,1.3-0.9,2.4-1.7c0.7-0.5,2-0.7,2.8-1.3
			c3.1-2.4,7.6-4.4,11.3-6.1c4.9-2.2,9.4-4.9,13.8-8.2c4.4-3.3,9.3-5.8,13.9-8.7c1.1-0.7,0.9-1.4,1.7-2.2c0.5-0.5,1.2-0.6,1.8-1
			c1.1-0.7,1.8-1.7,2.7-2.6c0.7-0.6,1.7-1,2.3-1.7c1.1-1.5,1.6-3.6,2.9-5.1c0.7-0.8,1-0.9,1.5-1.9c0.2-0.3-0.1-0.9,0.2-1.2
			c0.4-0.6,0.9-0.5,1.3-1c1-1.4,1-3.4,2-5.1c1.1-1.9,1.9-3.7,3.1-5.5c1.2-1.8,1.4-3.2,2.2-5.1c1-2.3,0.8-4.5,1.7-6.8
			c0.5-1.3,1.4-2.5,1.6-3.9c0.2-1.2-0.3-2.3,0.1-3.5c0.6-2,1.7-3.5,1.8-5.7c0.1-1.6-0.6-1.7-1.1-2.9c-0.3-0.8,0.2-1.8,0-2.6
			c-0.7-3.1-3.5-1.2-5.3-3.1c-1.4-1.4-0.2-4.6-2-6c-1.4-1.1-5.2-1.8-6.9-1.7c-2.7,0.2-5.7,1.3-8.2,2.2c-1.3,0.4-2.5,0.4-3.7,0.7
			c-1.2,0.3-1.9,1.1-3,1.6c-1.4,0.7-3,0.7-4.5,0.9c-0.5,0.1-2.1,0.1-2.2,0.2c-0.6,0.2-1.1,1-1.8,1.2c-1,0.4-2,0.3-3.1,0.9
			c-0.7,0.4-1.1,1.1-1.6,1.5c-0.6,0.6-0.6,0.7-1.6,1c-1.1,0.4-1.5,0.1-2.3,1.1c-1.5,1.8-3,3.6-4.7,5.3c-1,1-1.4,1.8-2,3
			c-0.5,1-1.2,1.6-1.7,2.5c-0.6,1-0.8,1.8-1.4,2.6c-0.7,0.9-1.1,1-1.7,2.2c-1,2.1-1.8,3.9-3.3,5.7c-3.4,3.8-6.8,7.7-10.2,11.5
			c-0.8,0.9-2.1,1.2-2.8,2.2c-0.6,0.8-0.6,1.9-1.2,2.8c-1.2,1.7-3.2,2.3-4.5,3.9c-0.8,1-1.2,2.1-2.1,2.9c-0.7,0.7-1.6,1.1-2.4,1.8
			c-1,1-2.5,2-3.3,3.1c-0.6,0.7-0.8,1.7-1.3,2.5c-0.6,1-1.5,1.5-2.2,2.3c-1.1,1.3-1.1,2.7-3.1,3.2c1.2,1.2,0.4,1.3,0.1,2.6
			c0,0.4,0,0.8-0.1,1.2c-0.1,0.5-0.5,0.8-1.1,0.8c-1.1,1.8-1.7,3.3-1.4,5.4c0.4,2.7,0.4,3.9-0.7,6.5c-0.7,1.7-2.2,1.8-1.8,4
			c0.5,2.8,2.8,1.6,4.6,3.4c1.5,1.6,2,3.9,3.5,5.5c1.6,1.6,2.5,2.4,5,2.2c1-0.1,4.4-1,4.9-0.3C125.2,220.4,127.1,219.3,129,218.2z
			 M93.5,127.4c0,1.2,0.5,1.9,0.1,3c1.2,1.7,1,2.3,2.8,2.8c0.4,0.1,2.2,0.3,2.3-0.4c0.1-0.2-1.2-1.3-1.4-1.5
			C96,129.9,94.8,128.6,93.5,127.4z M143.5,62.1c-0.9-0.9-1.3-4.1-2.7-3.4C138.6,59.9,140.6,65.2,143.5,62.1z M152.9,101
			c1.5,1.5,2,2.2,4.3,2.2C157,100.6,155,101,152.9,101z M109.1,73.4c-1.6-2.2-2.4-1.1-1.2,1.1C108.4,74,108.8,73.7,109.1,73.4z
			 M284.7,186c0.1-0.2,0.1-0.3,0.2-0.5c-0.7-0.5-1.4-1.1-2.2-1.7C282.8,185.8,282.7,185.8,284.7,186z M245.3,69.5
			c0.3-0.7,0.5-1.3,0.9-2.1c-0.2-0.4-0.6-1-0.9-1.6C244.8,67.1,244.7,68.3,245.3,69.5z M249.4,68.7c0.2-0.3,0.5-0.7,0.9-1.2
			c-1-0.4-1.9-0.4-3,0C248.1,68,248.7,68.3,249.4,68.7z M245.9,178.7c0.5-0.4,0.9-0.8,1.5-1.3c-1,0-1.7,0-2.7,0
			C245.2,177.9,245.5,178.2,245.9,178.7z M157.7,107.3c0.7-0.8,0.7-2.1,0-3C157.7,105.4,157.7,106.3,157.7,107.3z M244.2,73.6
			c-0.1-0.1-0.2-0.3-0.2-0.4C242.1,73,242,74.8,244.2,73.6z M207.1,36.2c0.1,0.1,0.1,0.3,0.2,0.4c1.1,0.1,1.7-0.1,1.3-1.2
			C208,35.6,207.5,35.9,207.1,36.2z"/>
		<path d="M319.3,246.9c0,1.3-0.3,3,0,4.3c0.3,1.2,1.4,1.6,1.6,2.6c0.6,2.4-5.1,4.4-6.8,5.2c-1.9,0.8-3.7,1.5-5.4,2.3
			c-1.3,0.7-1.9,0.8-3.5,0.9c-1.9,0.1-3.1,0.7-4.9,1.4c-1-1.5-2.1-1-3.6-1.4c-1.4-0.3-2-1.6-3.1-1.3c-0.4,0.1-1.3,1-1.8,1.3
			c-0.6,0.3-1.3,0.7-2,1c-1.6,0.9-3.3,1.6-4.8,2.7c-1.3,0.9-3,1.4-4.2,2.3c-1,0.7-1.6,1.5-2.6,2.1c-1.1,0.6-3,1.6-4.2,1.8
			c-1,0.2-1.9-0.1-3,0.3c-1.9,0.8-0.8,1-0.6,2.5c0.1,1.4-1.2,2.7-0.1,4c1,1.2,2.6,0.8,4,0.7c1.7,0,3.3,0.4,4.9,0.5
			c2.2,0.1,4.7-0.7,7.2-0.2c0.5,0.1,0.9,0.6,1.5,0.6c0.7,0,1.2-0.4,1.9-0.4c1.5,0,2.4,0.8,3.5,1.8c0.5-2.2,1.7-1.8,3.3-2.3
			c0.9-0.3,1.5-0.8,2.4-0.5c0.8,0.2,1.3,1.3,2.2,1.6c2.1,0.7,2.8-1.2,4.4-2c1.2-0.7,4.5-0.2,2.5,1.6c0.9,0,1.5,0,2.3,0
			c-0.2-0.4-0.3-0.7-0.4-1.1c1.8-0.5,4.2-1.1,5.8-0.5c1.1,0.4,1.5,0.8,2.6,0.8c1.3,0,2.1-0.6,3.4-0.3c-0.2,0.3-0.3,0.6-0.5,0.9
			c0.6,0.3,1.1,0.6,1.8,0.9c1.3-0.9,1.6,0.9,2.2,1.9c1.1,1.6,2.1,1.8,3.4,3.1c0.6,0.6,1.7,1.8,2.1,2.5c0.8,1.3,0.5,1.4-0.6,2.9
			c1.9,2.9-3.1,3.5-4.6,4c0,0.1,0,0.2,0,0.3c-0.2-0.2-0.4-0.5-0.6-0.6c-0.8,0.4-2.1,1.9-2.8,2.1c-1,0.3-1.4-0.2-2.4-0.5
			c-2.2-0.6-4.3-0.4-6-2.2c-2,0.3-4.9,0.9-6.9,0.4c-2-0.6-2.5-2.3-5-2.1c-2.2,0.2-3.5,0.4-5.7-0.1c-2.6-0.5-4.8-1.4-7.3-1.1
			c-2.6,0.2-5.5,1.1-8.2,1c-1,0-1.8-0.6-2.8-0.7c-1.1-0.1-1.9,0.2-3.1,0c-2.5-0.5-3.5-1.5-5.4-3.3c-0.6,2.1-1.2,4.2-2.7,5.8
			c0.8,1.3,1.7,1,2.8,1.6c1.2,0.6,1.9,2.1,3.1,2.7c1.3,0.7,4.9,1.6,4.6,3.8c1.2,0,2.1-0.4,3.2-0.2c1.5,0.2,3.7,1.6,4.9,2.4
			c2.3,1.4,4.8,1.7,6.9,3.5c2.6,2.2,11.1,5,7.5,10.3c0.6,1.6,1.8,3.4,1,5.2c-0.7,1.4-2.7,2-1.8,3.9c0.5-0.1,0.8-0.1,1.2-0.2
			c-0.4,1.4-1.5,3.4-3.1,3.6c-0.4,0.1-0.8-0.1-1.1-0.5c-0.4,0-0.8,0.1-1.1,0.4c-1,0.2,0.1,0.9-1.9,0.8c-2.5-0.1-9.2-1.1-6.1-4.6
			c-1,0-2.6,0.2-3.5-0.5c-0.6-0.5-0.5-1.4-1-1.9c-0.2-0.4-0.5-0.7-1-0.9c-0.2,0.3-0.4,0.4-0.7,0.4c-0.7-0.4-1.4-1-2-1.5
			c-1.8-1.4-3.8-2.5-4.5-4.8c-0.6-2,0.3-3.1-1.9-4.1c0.3-0.3,0.5-0.5,0.7-0.8c-0.4-0.6-1.9-1.2-2.5-1.9c-1.2-1.2-2.1-1.2-3.5-1.9
			c-1-0.5-2.2-1.6-3-2.4c-0.7-0.7-1.5-2.5-2.6-2.8c-1-0.3-2.2,0.5-3.1,1.1c-0.8,0.5-2.5,1.5-3.1,2.2c-2.2,2.4,0.9,5.6,1.8,7.9
			c0.5,1.3,0.9,2.6,1.4,3.9c0.6,1.5,1.4,2.2,2.2,3.5c0.8,1.4,1.1,3.2,1.7,4.6c0.5,1.1,0.4,1.6,0.5,2.5c0.2,0.9,0.2,2.2,0.5,3.1
			c0.4,1.4,1.1,1.5,0.9,3.1c-0.2,1.6-3.9,5.4-1,6.2l0,0c-0.4,1.9,3.3,4.4,1.8,5.4c1.5,1,1.7,1.1,2,2.6c0.2,1.1-0.4,1.2,0.8,2.4
			c2,1.9,3.3,1.6,1.2,4.3l0,0c-1-0.4-2-0.9-3.1-1.3c-0.5,0.7,3.1,6,3.6,7.3c-0.3,0.4-1.7,0.4-2.2,0.8c-1.3,1.2-0.7,2.1-2.7,2.6
			c-0.4,0.1-0.6-0.5-1-0.4c-0.6,0.2-1,0.9-1.6,1.1c-1.5,0.6-2.8-0.3-4.3-0.8c0.2-0.4,0.3-0.7,0.4-1c-2.2-1.5-3.2-3.5-3.7-6.1
			c-0.3-1.5-0.5-1.7-1.3-3c-0.9-1.5-0.9-1.5,0.3-2.9c-0.9-1.3-2-2.5-2.2-4.1c-0.3-1.8,0.8-3.4,0.7-5.1c-0.1-3.2-1.6-5.8-1.8-9
			c-0.1-1.3-0.4-2.6-0.8-3.8c-0.4-1.3-0.2-2.1-0.3-3.2c-0.2-2.2,0.1-4.4-1-6.6c-0.7-1.4-1.5-2.2-1.9-3.8c-0.3-1.3-0.2-3.8-1.7-3.8
			c-1,0-4.1,2.3-5,2.8c-1.7,1.1-3.3,2-5.1,2.8c-0.6,0.3-1.2,0.7-1.9,0.9c-0.5,0.1-0.9-0.3-1.5-0.2c-1.4,0.4-2.4,1.7-3.8,2.2
			c-0.6,0.2-2.6,0.4-3,1c-0.3,0.5,0.1,1,0,1.3c-0.2,0.6-0.3,1.3-0.8,2c0.7,2.7,1.8,4.2-0.2,6.4c0.3,0.5,0.6,0.8,0.5,1.4
			c-0.1,0.5-1,0.8-1.1,1c-0.3,1.3,0.3,1.3,1.5,0.7c0.9,1.2,1.2,1.4,0.7,2.7c0.6,1.2,1.7,1.8,2.3,2.8c0.7,1.1,0.4,0.7,0,2.2
			c2.4,1.3,1.3,4.4,1.7,6.4c0.2,1.1,1.5,2.3,1.9,3.4c0.7,1.8,1,3.7,1.5,5.4c0.3,1.1,0.8,2.2,1,3.4c0.1,0.9,0,1.9,0.2,2.8
			c0.1,0.6,0.9,1.4,0.9,1.9c-0.1,1.3-2,3.3-2.8,4.3c-0.7,0.9-2.1,1.8-2.4,2.8c-1.2-0.9-3.6,0.8-5,0.9c-0.3,0-2.7-0.4-2.8-0.5
			c-3.1-0.9-2.9-4.4-4.5-6.8c-1-1.5-1.8-1.8-1.9-3.8c-0.1-1.6,0.7-2.7,0.8-4.1c0.1-2.3-2.6-3.2-2.9-5.2c-0.2-1.7,2-2.5,3.1-3.1
			c1.8-1,1.1-0.4,0.8-1.6c-0.6-2-1.3-3.6-0.9-5.8c0.4-1.9,0.9-3,0.4-5c-0.5-2.1-0.2-4-0.5-6.1c-0.2-1.5-0.4-3.3-0.7-4.8
			c-0.2-0.8-0.5-2.7-0.9-3.3c-1.5-2.1-5-0.6-7.1-1.5c-1.4-0.6-2.5-1.2-4-1.1c-0.6,0.1-1.1,0.3-1.6,0.4c-0.4,0.1-0.6-0.3-0.9-0.3
			c-3.9,0.8-6.1,0.5-9.6-1.5c-1.6-0.9-3.4-1.5-4.9-2.6c-1.4-1.1-2.2-2.6-3.2-3.9c-2.1-2.5-3.3-5.5-5-8.3c-0.9-1.5-1.4-3-1.9-4.7
			c-0.2-0.9-0.3-2.8-0.9-3.6c-0.4-0.5-0.9-0.2-1.4-0.7c-0.9-0.9-2-2.2-3-2.8c-1.9-1-3.4-0.9-4.3-2.9c-1.3-2.7,0.5-6.3,1.9-8.6
			c0.7-1.1,1.3-2.4,2-3.5c1.3-2.2,2.7-2.6,4.7-3.7c3.1-1.6,4.9-5.1,7.2-7.6c2.4-2.6,3.9-5.3,5.8-8.3c1.1-1.9,1.6-3.7,3.1-5.3
			c1.6-1.7,3.4-3.9,5.4-5.1c1.7-1,3.2-0.9,5-0.7c1.2,0.1,0.4,0.7,1.6,0.2c0.9-0.4,1.9-1.9,2.7-2.6c2.9,0.6,5.2,0.7,7.8-0.5
			c1.6-0.7,1.7-0.1,3.3,0c1.2,0.1,1.5-1.1,2.7,0c2.7-1.3,4.8-2.4,7.6-2.7c0.7-0.1,1.6-0.4,2.4-0.4c2.1,0,3.1,1.3,4.9,1.6
			c1.7,0.3,1-0.4,1.9-1.2c1-0.8,1.8-0.7,3.1-0.8c0.9-0.1,2.2-0.4,3.2-0.4c1,0,0.9,0.7,2,0.2c1.4,2.3,5.1,3.2,7.4,4.4
			c1.2-1.2,4.7,0.7,5.3,2c2.4-2.8,4.3-5.5,7.6-7.2c2.9-1.5,3.9-3.6,5-6.6l0,0c1.2,0.1,2.9-2,3.5-2.9c0.6-0.9,0.9-2.7,1.1-3.7
			c0.5-1.9,0.7-1.6,2.1-2.9c1-1,1-1.4,1.1-2.9c0.2-3.2,2.6-5.5,3.1-8.5c0.1-0.9-0.4-0.7,0-1.6c0.2-0.4,1.4-1.1,1.7-1.6
			c0.5-0.7,1-1.4,1.4-2c0.5-0.7,1.1-0.3,1.1-1.6l0,0c1.8,0.3,3.4-0.4,3.9-2.1c-0.7-0.3-1.4-0.3-2.1,0c1.4-4.8,10.3,0.1,12.5,2
			c1.8,1.5-0.3,1.9,0.4,3.1c0.4,0.7,2-0.2,2.1,1c0,0.6-1.2,1.4-1.4,2c-0.6,1.7-0.3,3.1-1.4,4.9c-1.6,2.6-3,5.2-5,7.7
			c-0.9,1.2-2.4,2.2-3.1,3.5c-0.3,0.5-0.2,1.1-0.6,1.7c-0.1,0.2-0.9,0.4-1.2,0.7c-1.4,1.7-2,4.7-3.8,6.2c-1.3,1-6.7,0.6-4.5,3.6
			c-0.7,0.4-1.4,0.2-2,0.8c-0.7,0.6,0.1,1.3-1,1.8c-0.6,0.3-1-0.8-1.7-0.4c-0.1,0.1-0.4,1.9-0.7,2.3c-2,3.7-5.4,6.6-8.4,9.2
			c-1.6,1.4-1.7,1.6-1.4,3.3c0.5,2.5,1.9,1.4,4.1,1.1c1.7-0.3,3.7-0.3,5.4-0.9c1.7-0.6,2.8-3,4.6-0.8c0.8-1.8,1-2.7,2.7-3.6
			c1.4-0.7,2.8-0.9,3.7-2.3c1.2,1.9-0.6,1.7-1.4,2.4c1.8,0.1,3.3,0.4,4.8-0.9c1.6-1.4,0.3-1.2,2.4-0.6c0.2-0.5,0.3-1,0.6-1.6
			c1.7,1.8,3,2.3,2.8-0.7c-0.4,0.3-0.9,0.5-1.4,0.5c0-3,5.5-2.2,2.4-5.1c2.5-1.5,5-2.8,7.6-4c3-1.4,5-1.5,8.1-1.5c0.8,0,2-0.3,2.7,0
			c1.2,0.5,0.9,2,1.5,2.9c0.6,0.9,1.6,1.3,2.3,2.1C318.8,245.7,318.2,246.8,319.3,246.9L319.3,246.9z M222.3,256.8
			c-2.2,1.1-5,1.7-7.1,3c-0.3-0.1-3.5,0.2-3.8,0.2c-1.1,0.3-2.4,1.1-3.5,1.5c-3.6,1.1-6.1,1.3-8.7,4.3c-1,1.2-1.4,2.5-2,3.8
			c-0.6,1.2-1.5,2.1-2.2,3.3c-0.5,1-0.8,1.7-1.6,2.8c-1,1.3-1.8,2.4-2.9,3.6c-1.2,1.3-2,2.7-2.8,4.3c-1.2,2-1.4,2.1-0.7,4
			c0.9,2.6,1,5.4,2.5,8c1.5,2.5,3.3,5.5,6.1,6.7c1.5,0.7,3,0.4,4.5,0.8c1.3,0.4,1.5,1.6,2.7,0.1c0.5,0.6,3.4,0.8,4.7,0.9
			c2.4,0.2,4.6,0.5,6.8,0.2c2.8-0.4,5.7,0.2,8.3-0.8c1.9-0.7,3.6-0.8,5.5-1.6c1.4-0.6,2.7-1.4,4.2-1.8c1-0.2,1.4-0.1,2.2-0.7
			c0.6-0.5,0.9-1.5,2-2.1c1.2-0.6,2.1-1,3.1-1.8c1.3-1,4.3-2.6,5.1-3.9c0.5-0.9-0.1-2,0.3-2.9c0.4-1,1.3-1.5,1.8-2.4
			c1.4,0,2-1.2,2.7-1.8c-1-3.3,1.8-4.2,3.4-6.6c0.8-1.2,1.2-2.7,1.9-4c0.8-1.4,2-1.9,0.5-3.2c1.9-0.9-1.9-6.5-3.5-7.5
			c-1.4-0.9-2.6-2.6-4.1-3.3c-1.5-0.7-2.9-1.2-4.4-2.2c-1.5-1-3.2-2.3-4.9-2.6c0.8,0.2-3,0-2.1,0c-1,0-1.8-0.1-2.9-0.1
			c-2.2,0.1-4.5,0.6-6.7,0.9c-1.4,0.2-2.8,1.1-3.9,1.4C222.5,257.1,222.3,256.9,222.3,256.8z M302.5,287.3c0.3-0.3,0.6-0.4,0.8-0.6
			c-0.7-0.5-0.7-0.5-1.5-0.1C302,286.8,302.2,287,302.5,287.3z"/>
		<path d="M245.6,150.7c-0.2-0.6-0.5-1.1-0.7-1.7c0.3-0.9,1.8-1.3,2.5-1.6c1.5-0.6,1.9-0.4,3.4-0.2c1.1,0.2,2.6,0.7,3.5-0.2
			c0.6-0.6,0.1-1.4,1-1.9c0.7-0.4,3.1-0.3,4-0.5c1-0.2,1.9-0.6,2.9-0.8c1.2-0.2,2.3-0.3,3.4-0.9c1.5-0.9,0.9-1.3,1.8-2.6
			c1.4-2.2,4.8-1.4,6.8-2.6c0.7-0.4,0.9-1.3,1.8-1.8c0.8-0.5,2.4-1,3.2-1.1c0.9-0.1,2,0.6,2.6,0.3c1.2-0.5,1.2-2.7,1.7-3.5
			c0.8-1.2,3.7-4.2,4.9-2.8c2.9-0.8,5.2-0.8,8,0c2.6,0.7,6.4-0.5,8.3,1.9c0.8-0.9,3.2-0.1,4.3,0.1c1.7,0.4,1.7,0.9,3,2.4
			c1-0.2,1.1-1.6,2.2,0c1.4,1.8-0.5,1.5-1.6,2c-1,0.6-1,1.4-2.5,1.6c-1.6,0.2-1.9,0-3.6,0.9c-3.2-0.8-2.4,0.5-4.5,2.3
			c0.3,0.3,0.5,0.5,0.8,0.9c-0.6,0.5-1.9,0.1-1.7,1.3l0,0c-0.8,0.1-1.6,0.3-1.7-0.9c-1,0.7-1.7,0.9-2.9,1.1c0,0.1,0,0.3,0,0.4
			c1.1,0.1,2.6-0.1,2.9,1c0.4,1.2-1.1,2.4-1.7,3.1c2.1-0.1,2.8-1.2,4.1,0.8c-2.4,0.4-4.6,0.8-7.2,1.2c1.1,0.4,1.8,0.8,1.8,1.9
			c1.7-0.7,1.7-0.7,3.1,0.6c0,0.1,0,0.2-0.1,0.3c-1.5,0.2-2.8,0.3-4.2,0.8c-0.9,0.3-2.1,1-2.9,1.2c-1.1,0.2-1.5-0.2-2.7,0.3
			c-1.8,0.7-3.2,2-5.1,2.4c-0.8,0.2-1.8,0-2.8,0.3c-1.5,0.4-2.7,0.8-4.3,0.7c-1.5-0.2-3.3,0.1-4.7-0.1c-1.5-0.2-2.3-1.7-3.3-3
			c-1.1,1.6-1.4,0.4-2.2-0.2c-1.1-0.9,0-1.4-2.2-1.4c-0.6-0.5-1.2-0.7-1.8,0c-2.2-0.4-4.5-0.8-6.8-1.1c-0.4,0.5-0.9,1.1-1.5,1.8
			c-0.6-0.3-1.8-1.2-2.5-1.3c-0.9-0.1-1,0.6-1.9,0.6C249.1,152.3,246.9,151.4,245.6,150.7z M302.6,135.9c0-0.1,0-0.2,0-0.3
			C299.4,135.3,300.4,137.6,302.6,135.9z"/>
		<path d="M297.1,99.3c-0.7-1.5,0.6-1.9,1.7-2.8c-0.4-0.2-0.7-0.4-1.1-0.6c0.8-0.6,2-0.2,2.2,0.9C300.1,98.2,298.2,98.9,297.1,99.3z
			"/>
		<path d="M115.7,81.8c0-0.5,0.1-1,0.1-1.8c1,0.7,2.6-0.7,3.1,0.5c0.5,1.3-1.7,1.3-1.7,2.8l0,0c-0.3-0.2-0.5-0.5-0.8-0.7
			C116.2,82.3,116,82,115.7,81.8C115.7,81.8,115.7,81.8,115.7,81.8z"/>
		<path d="M296.4,100.1c0.5,0.5,0.8,0.9,1.2,1.3c-0.5,0.2-0.9,0.4-1.4,0.6c0.7,0.8,0.1,2.7-1.2,2.1
			C293.8,103.3,296.1,100.7,296.4,100.1z"/>
		<path d="M252.1,73c0.8,0,4.4-1.7,4,0C255.6,75,252.8,74.4,252.1,73L252.1,73z"/>
		<path d="M269,356.9C273.6,356.8,268.9,361.5,269,356.9L269,356.9z"/>
		<path d="M263.2,152.3c0.6-0.8,1.2-0.6,1.8,0c0,0.7,0.2,2.4-1,2.5C262.8,154.8,263.2,153.1,263.2,152.3z"/>
		<path d="M108.4,139.4c0.1-0.8,0.1-1.5,0.2-2.1c1.1,0.4,2.1,0.7,3,1C111,139.8,109.6,139.4,108.4,139.4
			C108.5,139.4,108.4,139.4,108.4,139.4z"/>
		<path d="M290.7,104.8c0.5-0.9,2.5-2.4,2.9-0.6C294,106.3,291.4,105.1,290.7,104.8z"/>
		<path d="M82.3,111.4c-1.6,1.5-2.5-0.5-2.6-2.1C80.9,109.6,81.5,110.5,82.3,111.4z"/>
		<path d="M300.9,142c2.7,0,1.6,2.1,0.1,3.1C301,143.9,301,142.9,300.9,142L300.9,142z"/>
		<path d="M146.2,54.7c0.8-0.3,3-0.5,2.2,1C147.7,57,146.7,55.1,146.2,54.7z"/>
		<path d="M119.1,69.6c-0.3,0-3.6,0.1-2.4-1.2C117.6,67.4,118.5,68.9,119.1,69.6z"/>
		<path d="M288.8,100.9c0.1-1.8,2.6-1.8,0.6,0.7C289.2,101.3,288.9,101,288.8,100.9z"/>
		<path d="M319.3,246.9C321.8,244.3,322.2,248.2,319.3,246.9C319.3,246.9,319.3,246.9,319.3,246.9z"/>
		<path d="M196.8,88.1C199.2,90,196.8,92,196.8,88.1L196.8,88.1z"/>
		<path d="M252.1,183.5c-0.4,0.8-0.6,1.2-1.4,1.6C250.3,183.7,250.6,183.5,252.1,183.5L252.1,183.5z"/>
		<path d="M284.9,206.9C282.5,206.6,287.4,203.4,284.9,206.9L284.9,206.9z"/>
		<path d="M112.8,69.6c-0.9,0.8-0.9,1-1.8,0.2C111.8,68.9,111.8,69,112.8,69.6z"/>
		<path d="M263.2,342.3c0.2-1.3,2.1-0.7,1.5,0.8C264.2,342.8,263.7,342.6,263.2,342.3L263.2,342.3z"/>
		<path d="M276,196.3c0,0.5-0.1,1-0.1,1.7c-0.9-0.4-1.4-0.9-1.4-1.7l0,0C275,196.3,275.5,196.3,276,196.3L276,196.3z"/>
		<path d="M223,214.9c-1-1.2-0.3-1.6,0.8-1.4C223.5,213.9,223.2,214.4,223,214.9z"/>
		<path d="M243.2,129.6c-0.4,0.3-0.8,0.6-1.5,1.1c0.1-1.3,0.1-1.3,1.4-1.5C243.1,129.3,243.1,129.4,243.2,129.6z"/>
		<path d="M221.7,210.9c-0.4,0.5-0.9,1-1.3,1.5C219.6,211,220.4,210.9,221.7,210.9L221.7,210.9z"/>
		<path d="M269.8,234.8c-0.5-0.1-1.1-0.1-1.6-0.2c0-0.1,0-0.2,0-0.3c0.4-0.3,0.8-0.6,1.4-1.1C269.6,233.9,269.7,234.4,269.8,234.8
			L269.8,234.8z"/>
		<path d="M271.1,97.3c-0.3,0.4-0.6,0.9-1,1.3c-0.1,0-0.2,0-0.4-0.1c0.1-1.3,0-1.4,1.2-1.5C271.1,97.1,271.1,97.2,271.1,97.3z"/>
		<path d="M195,89.6C196.9,89.5,195.1,93.2,195,89.6L195,89.6z"/>
		<path d="M266.2,156.8c-1.2,0.3-1.3,0.1-1-1.3C265.6,156,265.9,156.4,266.2,156.8z"/>
		<path d="M305.1,140.5c0.3-0.3,0.6-0.6,1.2-1.2c0,1.2,0.1,1.3-1.1,1.5C305.2,140.7,305.1,140.6,305.1,140.5z"/>
		<path d="M256.7,75.3c0.2,0.4,0.5,0.8,0.7,1.2c-1,0.2-0.9-0.1-1.3-1C256.3,75.5,256.5,75.4,256.7,75.3z"/>
		<path d="M286.6,101.7c0.4-0.2,0.8-0.4,1.2-0.6C288.9,102,286.9,103.2,286.6,101.7L286.6,101.7z"/>
	</g>
</g>
</svg>
