<?xml version="1.0" encoding="utf-8"?>
<!-- Generator: Adobe Illustrator 27.8.0, SVG Export Plug-In . SVG Version: 6.00 Build 0)  -->
<svg version="1.1" id="Layer_1" xmlns="http://www.w3.org/2000/svg" xmlns:xlink="http://www.w3.org/1999/xlink" x="0px" y="0px"
	 viewBox="0 0 400 400" style="fill: #fcf9ee;" xml:space="preserve">
<style type="text/css">
	.st0{fill:#FFFFFF;}
</style>
<g>
	<path d="M173.9,239.4c-0.6,3.8-0.7,7.4,1.8,10.3c1.4,1.6,1.6,3.3,0.5,4.8c-1.4,1.9-2.9,4-4.8,5.3c-2.2,1.5-3.4,3.3-3.9,5.8
		c-0.4,1.9-0.7,3.8-4,2.7c0.8,1.1,1.2,1.7,1.7,2.5c-4.1,5-6.2,10.9-7.7,17.1c-0.3,1-0.7,2-1.1,3c-0.8,1.7-2.1,2.8-4,2.5
		c-2.9-0.4-5.2,0.8-7.6,2.2c-1.6,1-3.4,1.9-5.3,2.1c-4.2,0.6-6.3-2.2-5-6.2c1.1-3.2,3.4-5.2,6.2-6.7c0.8-0.5,1.7-0.9,2.6-1.1
		c3.3-0.7,5.7-2.3,6.9-5.6c0.3-0.8,1-1.4,1.6-2c2.7-2.8,3.9-5.9,3.5-9.9c-0.2-1.9,0.5-3.9,1-5.8c0.8-2.7,1.2-5.2,0-8.1
		c-1.6-4.1-2.5-8.5-3.7-12.5c-2.8,1.9-5.6,3.7-8.4,5.7c-0.7,0.5-1.2,1.4-1.7,2.1c-3.4,5.3-6.7,10.7-10.2,16c-2,3-3.3,6-3.2,9.7
		c0.1,6.3-4.6,10.5-10.9,10.1c-1.6-0.1-2.4-1-2.1-2.5c0.2-1.2,0.6-2.5,1.2-3.6c2.5-4.2,3.9-8.7,4.3-13.5c0.5-6,3-11.3,6.1-16.2
		c2.4-3.8,3.9-7.6,3.6-12.2c-0.2-2.9,0.8-5.9,1.2-8.9c0.1-0.9-0.1-1.9-0.4-2.8c-0.9-2.3-1.8-4.7-2.9-6.9c-0.7-1.5-1.6-3.1-2.8-4.1
		c-1.9-1.6-4.2-2.6-6.3-4c-1.6-1-3.4-2-4.6-3.4c-3-3.7-5.8-7.6-8.5-11.5c-1.7-2.4-1.9-5.3-1.5-8.2c0.2-1.1,0.2-2.6-0.4-3.4
		c-3.4-4.7-6.3-9.9-11.1-13.3c-2.5-1.7-4.8-2.8-8.2-1.9c-3.8,1-7.9,0.7-11.9,0.9c-6,0.2-12,0.2-17.9,0.7c-2.1,0.2-4.3,1.3-6.2,2.5
		c-1.7,1.1-3.1,1.3-4.7,0.2c-2.4-1.6-3.9-3.9-4.8-6.6c-0.5-1.4,0.2-2.4,1.6-2.3c3.9,0.3,6.4-1.9,8.6-4.7c2.1-2.6,4.7-4.1,8.1-4.7
		c6.5-1.1,12-7.3,12.6-14.2c0.4-4,1.7-7.5,3.8-10.7c1.7-2.6,3.3-5.3,3-8.7c-0.2-1.8,1.1-3,2.9-3.5c1.3-0.4,2.1-1,2.2-2.6
		c0.1-1.4,1-2.8,1.4-4.2c0.8-2.5,1.6-5.1,2.5-7.7c0.3-0.9,0.7-1.9,1.3-2.6c1.2-1.5,1.4-3,0.8-4.8c-0.4-1.1-0.6-2.6-0.2-3.7
		c0.3-1,1.5-2.2,2.3-2.3c1,0,2.2,1,2.9,1.8c0.6,0.7,0.6,1.8,0.9,2.8c0.6,2.6,1.3,5.1,1.6,7.7c0.2,1.7-0.1,3.5-0.1,5.2
		c0,0.8,0,1.9,0.5,2.3c1.8,1.6,2.2,3.7,2.2,6c0,0.5,0,1,0,1.5c0,5.2,4.2,7.8,8.8,5.4c2.9-1.5,4.8-3.8,5.6-7.1c0.4-1.8,1.6-3.5,2.7-5
		c1.4-2,2.8-3.9,3-6.5c0-0.6,0.2-1.4,0.6-1.8c2.8-2.8,5.6-5.5,8.4-8.3c0.2,0.1,0.5,0.2,0.7,0.3c0.2,0.8,0.5,1.5,0.4,2.3
		c-0.1,1.3-0.4,2.5-0.8,3.7c-1.4,4-1.5,8.1-0.7,12.2c0.6,3,0.2,5.9-0.9,8.8c-1.5,3.8-2.9,7.7-4.1,11.6c-1.2,3.7-1,7.4,0.2,11.1
		c0.8,2.5,1.3,5.1,1.6,7.7c0.4,3,1.5,5.8,4,7.5c6.8,4.8,13.9,9.4,22.4,10.3c3.6,0.4,7.6,0,11.1-1.1c5.1-1.6,10.3-2.3,15.5-2.3
		c4.2,0,8.4,0.4,12.6,0.4c2.2,0,4.5-0.5,6.6-1.1c4.1-1.2,8.2-2.9,12.3-4.1c4.9-1.3,7.2-0.3,9.4,4.2c2.1,4.1,5.8,4.8,9.5,4.8
		c4.5,0,9.2-0.1,13.5-1.3c8.5-2.4,16.9-2.5,25.3-0.5c7.6,1.8,14.1,0,20.9-3.3c9.9-4.8,17.3-12.1,23.6-20.8c1.4-1.9,2.2-4.1,3.6-6
		c1.9-2.6,4.1-5.1,6.1-7.6c1.6-2,3.5-3.8,4.7-6c1.8-3.2,4.2-5.7,7.4-7.5c3.5-1.9,7.1-3.6,10.5-5.6c2.5-1.5,4.7-3.5,7.1-5
		c1.9-1.2,3.9-2.4,6-3c0.9-0.3,2.7,0.6,3.1,1.4c0.5,1,0.4,2.7-0.2,3.7c-0.8,1.5-2.1,2.7-3.3,3.9c-4,4-7.8,8-10.7,12.9
		c-3.3,5.6-8.2,10-13.6,13.8c-9.4,6.7-15,16.4-19.7,26.6c-1.7,3.7-4,6.8-7.7,8.5c-4,1.9-6.4,5.1-8.2,8.9c-1.9,4-4.1,7.8-5.7,11.9
		c-2.5,6.3-3.1,12.9-2,19.7c0.8,4.9,1.1,9.9,1.8,14.8c1.2,8.1,2.6,16.1,3.7,24.2c0.2,1.6-0.2,3.2-0.5,4.8c-0.4,1.7-1,3.2-1.6,4.9
		c-0.9,2.5-0.3,4.6,0.6,7.1c1.2,3.3,1.3,7,1.8,10.6c0.6,4,1.1,8,1.5,12c0.2,2.7,0.4,5.4,0,8c-0.3,2.3-2,3.5-4.5,3.9
		c-1.6,0.3-3.1,1.3-4.4,2.3c-1.8,1.4-3.4,3.3-5.2,4.8c-2.5,2.1-5,2-7.5-0.1c-0.8-0.7-1.6-1.6-2.2-2.6c-1.9-3.2-1.4-5.4,1.7-7.4
		c1.6-1.1,3.3-2,4.9-3c2.4-1.5,3.5-3.7,3.8-6.4c0.3-3.4,1-6.8,0.7-10.2c-0.3-3.3-1-6.4,3.2-8.2c-0.2-0.2-0.4-0.4-0.7-0.6
		c-1.4,0.3-2.7,0.7-4.2,1.1c-3.4-5.3-6.9-10.6-4.9-17.5c0.3-1.2,0.3-2.5,0.4-3.8c0.1-3.3-0.5-4.4-3.7-5.4
		c-5.6-1.7-11.3-3.3-17.1-4.7c-1.7-0.4-3.7-0.3-5.5-0.1c-3.5,0.3-5.9,1.6-7,5.5c-1,3.8-3,7.3-4.8,10.9c-1.1,2.3-0.7,4.5-0.2,6.7
		c0.9,3.7,2,7.4,3,11.1c1,3.6,1.4,7.2,0.1,10.7c-0.7,2-2,3.9-3.5,5.5c-2.9,3.1-6,6.1-9.3,8.7c-3.2,2.6-6.9,1.7-9.1-1.8
		c-1.3-2.1-1.1-3.7,0.8-5.3c1-0.8,2.3-1.5,3.5-2.1c3.4-1.7,4.2-4.1,3.9-7.8c-0.3-3.3,0.4-6.8,0.8-10.2c0.4-2.9,0.5-5.8-0.7-8.6
		c-0.8-2.1-1.6-4.3-4.3-4.8c-0.3,0-0.5-0.3-0.7-0.5c-3.7-4-7.9-7.8-7.7-13.9c0.1-1.8-0.8-2.3-2.3-2.6c-6.4-1.1-13-1.4-19.4-0.3
		c-5.8,1-11.2-0.3-16.5-2.1C177,240.5,175.6,240,173.9,239.4z M159.2,173.6c-0.6,2.4-2.2,2.3-3.8,2.3c-1.1,0-2.1,0.1-3.2,0.1
		c-6.2,0.2-12.3,0.3-17.8-3.2c-4.2-2.7-8.2-5.6-12.3-8.5c-3-2.1-4.5-5-5.1-8.5c-0.8-5.1-1.9-10.2-2.7-15.3c-0.4-2.4-1.6-3.9-3.7-4.8
		c-1.3-0.6-2.8-1.1-3.7-2c-4.1-4.1-9.5-5.2-14.5-7.4c-2.7-1.2-5.2,0.5-6,3.4c-0.2,0.6-0.3,1.3-0.7,1.7c-2.5,2.5-3.5,5.7-4.5,9.1
		c-0.7,2.4-1.8,4.8-3.2,6.9c-1.2,1.9-3,3.5-4.6,5.3c-1.6,1.8-3.3,3.4-4.9,5.2c-0.5,0.6-0.9,1.3-1.4,1.9c0.1,0.2,0.2,0.4,0.3,0.5
		c1-0.2,2.1-0.2,3-0.5c2.6-1,5.1-2.1,7.7-3.2c0.8-0.3,1.8-0.8,2.6-0.8c4.2,0.1,8.4,0.3,12.6,0.5c0.7,0,1.5,0.5,2.1,0.9
		c1.4,1,2.7,2.2,4.2,3.2c2.1,1.3,4.4,2.4,6.5,3.7c0.8,0.5,1.5,1.3,2.1,2.1c3,4.3,5.9,8.7,8.9,13c0.6,0.9,1.7,1.4,2.6,2.2
		c3.6,2.9,6.1,6.4,6.3,11.1c0.3,4.3,2.3,7.6,5.2,10.6c3.2,3.4,6.6,6.7,9.4,10.4c2.5,3.4,5.4,6.2,9.2,7.7c2.6,1,4.5,2.5,6.5,4.2
		c1.5,1.2,3,2.4,4.7,3.3c1.2,0.6,2.8,1,4.1,0.7c7.1-1.4,14.1-1.4,21.1,0.9c1.9,0.6,3.9,0.7,4.6,3.1c0.1,0.5,0.5,1,0.8,1.5
		c0.2-0.1,0.5-0.3,0.7-0.4c0.5-0.9,0.9-1.8,1.4-2.8c0.7,0.1,1.4,0.2,2.1,0.3c4.6,0.5,9.2,0.9,13.8,1.4c4.7,0.4,9.6,0.4,14.2,1.4
		c4.9,1.1,9.4,0.9,14.1-0.4c1.7-0.5,3.4-1,5.2-1.4c8.6-2.1,17.2-3.3,25.8,0.2c1.3,0.5,2.6,1.2,3.7,2c2.5,1.8,6,0.5,6.4-2.6
		c0.2-1.2,0-2.4-0.2-3.6c-0.3-2.3-0.6-4.5-1.1-6.7c-0.5-2.3-0.3-4.2,1.8-5.5c0.1,0,0-0.2,0.1-0.5c-0.7,0-1.5,0-2.3,0
		c-0.1-0.6-0.2-1-0.3-1.5c-0.4-6.1-0.5-12,2-17.8c2.8-6.8,3.8-14.5,9.2-20.2c0.4-0.5,0.5-1.3,0.9-2.5c-1.4,0.2-2.4,0.3-3.3,0.6
		c-2.7,0.8-5.3,1.8-7.9,2.5c-5.8,1.5-11.6,2.2-17.4-0.1c-1.5-0.6-3.4-0.5-5.1-0.4c-8.9,0.3-17.8,0.8-26.6,1c-2.9,0.1-6-0.4-8.8-1.1
		c-3.8-1-7.5-2.7-11.4-3.6c-3.1-0.7-6.3-0.9-9.5-0.9c-2.4,0-4.8,0.7-7.2,0.7c-8.2,0.1-16.4-0.5-24.4,1.7c-1,0.3-2,0.3-3,0.4
		C162.4,175.3,160.5,176,159.2,173.6z M137.2,231.1c-1.7,3-2.8,5.6-2.7,8.7c0.1,3-0.7,5.8-2.3,8.5c-1.5,2.6-2.6,5.4-3.6,8.1
		c-0.4,1.1-0.3,2.5-0.5,3.7c0.2,0.1,0.5,0.2,0.7,0.2c0.6-0.7,1.3-1.4,1.8-2.3c1.5-2.8,2.7-5.6,4.3-8.3c0.8-1.4,1.7-3.1,3-3.7
		c4.6-2.1,6.7-6.2,9.1-10.1c0.5-0.7,0.7-1.7,1.1-2.8C144.2,233.3,140.1,235.5,137.2,231.1z M236.4,253.2c-4-1-7.6-1.9-11.9-2.9
		c1.3,1.6,2.2,3.2,3.5,4.2c4.3,3.4,4.7,8.2,5,13c0.3,4.3,0.5,8.6,0.6,12.9c0,1.3-0.4,2.6-0.4,3.9c-0.1,0.9,0.1,1.8,0.2,3.1
		c2.7-2.3,4.3-7.8,4-11.3c-0.5-6.6-0.8-13.1-1.2-19.7C236.2,255.2,236.4,254,236.4,253.2z M113.7,124.4c0.4,0.4,0.6,0.7,0.9,1
		c2.1,2.4,3.1,2.1,4.8-0.5c4.1-6.5,3.7-13.9,4.7-21.5c-2.5,1.6-3.4,3.7-4.2,6c-0.9,2.2-1.4,4.9-3,6.5c-2.5,2.5-3.8,5.6-5,8.7
		c-0.2,0.5-0.2,1.1-0.3,2.2C112.5,125.7,113.1,125.1,113.7,124.4z M84.6,116.4c2-0.6,3.1-1.2,4.3-1.3c1.5-0.1,3,0.1,4.4,0.3
		c0.9,0.1,1.7,0.4,2.6,0.5c-0.1-0.9,0.2-2-0.2-2.8c-1.8-4-3-8.1-2.5-12.6c0.1-0.8-0.3-1.7-0.5-2.7C90,104.2,87.4,110.1,84.6,116.4z
		 M118.7,198.4c-0.4,0.2-0.8,0.3-1.2,0.5c0.2,1.1,0.1,2.4,0.7,3.2c0.7,0.8,2,1.1,3,1.6c0.2-0.3,0.5-0.6,0.7-0.9
		C120.8,201.4,119.7,199.9,118.7,198.4z M246.2,174.7c1-0.8,1.6-1.3,2.3-1.8c-1-0.5-2-1.1-3.1-1.3c-0.5-0.1-1.1,0.6-1.6,0.9
		C244.5,173.1,245.2,173.8,246.2,174.7z M114.3,189c-0.3-0.1-0.5-0.1-0.8-0.2c-0.3,0.9-0.9,1.8-0.9,2.7c0,0.4,1,0.9,1.5,1.3
		c0.2-0.1,0.4-0.2,0.6-0.4C114.6,191.3,114.4,190.1,114.3,189z M235.3,172.1c0,0.3,0,0.5-0.1,0.8c1.2,0.7,2.4,1.5,3.7,0.3
		c0-0.3,0-0.6,0.1-0.8C237.8,172.3,236.6,172.2,235.3,172.1z"/>
	<path class="st0" d="M159.2,173.6c1.3,2.4,3.2,1.8,5,1.5c1-0.1,2-0.2,3-0.4c8-2.2,16.2-1.6,24.4-1.7c2.4,0,4.8-0.7,7.2-0.7
		c3.2,0.1,6.4,0.2,9.5,0.9c3.9,0.9,7.5,2.6,11.4,3.6c2.9,0.7,5.9,1.2,8.8,1.1c8.9-0.2,17.8-0.7,26.6-1c1.7-0.1,3.5-0.2,5.1,0.4
		c5.8,2.3,11.6,1.6,17.4,0.1c2.7-0.7,5.3-1.7,7.9-2.5c0.9-0.3,1.9-0.3,3.3-0.6c-0.4,1.1-0.4,2-0.9,2.5c-5.4,5.7-6.3,13.4-9.2,20.2
		c-2.4,5.8-2.4,11.8-2,17.8c0,0.5,0.2,1,0.3,1.5c0.8,0,1.6,0,2.3,0c0,0.3,0,0.5-0.1,0.5c-2.1,1.3-2.3,3.3-1.8,5.5
		c0.5,2.2,0.8,4.5,1.1,6.7c0.2,1.2,0.3,2.4,0.2,3.6c-0.4,3.1-3.9,4.4-6.4,2.6c-1.1-0.8-2.4-1.5-3.7-2c-8.5-3.6-17.2-2.3-25.8-0.2
		c-1.7,0.4-3.4,0.9-5.2,1.4c-4.7,1.3-9.2,1.5-14.1,0.4c-4.6-1-9.4-1-14.2-1.4c-4.6-0.4-9.2-0.9-13.8-1.4c-0.7-0.1-1.4-0.2-2.1-0.3
		c-0.5,1-1,1.9-1.4,2.8c-0.2,0.1-0.5,0.3-0.7,0.4c-0.3-0.5-0.6-1-0.8-1.5c-0.6-2.4-2.7-2.5-4.6-3.1c-7-2.3-14-2.3-21.1-0.9
		c-1.3,0.2-2.9-0.1-4.1-0.7c-1.7-0.8-3.3-2-4.7-3.3c-2-1.7-3.9-3.2-6.5-4.2c-3.7-1.5-6.7-4.3-9.2-7.7c-2.8-3.7-6.1-7-9.4-10.4
		c-2.9-3-4.9-6.3-5.2-10.6c-0.3-4.7-2.8-8.2-6.3-11.1c-0.9-0.7-2-1.3-2.6-2.2c-3-4.3-5.9-8.7-8.9-13c-0.5-0.8-1.3-1.6-2.1-2.1
		c-2.1-1.3-4.4-2.4-6.5-3.7c-1.5-0.9-2.8-2.2-4.2-3.2c-0.6-0.4-1.4-0.9-2.1-0.9c-4.2-0.3-8.4-0.4-12.6-0.5c-0.9,0-1.8,0.4-2.6,0.8
		c-2.6,1-5.1,2.2-7.7,3.2c-0.9,0.4-2,0.4-3,0.5c-0.1-0.2-0.2-0.4-0.3-0.5c0.5-0.6,0.9-1.4,1.4-1.9c1.6-1.8,3.3-3.4,4.9-5.2
		c1.6-1.7,3.4-3.3,4.6-5.3c1.4-2.1,2.4-4.5,3.2-6.9c1-3.3,2-6.5,4.5-9.1c0.4-0.4,0.5-1.1,0.7-1.7c0.8-2.9,3.3-4.6,6-3.4
		c5,2.2,10.5,3.4,14.5,7.4c1,1,2.4,1.4,3.7,2c2.1,1,3.3,2.5,3.7,4.8c0.8,5.1,1.9,10.2,2.7,15.3c0.6,3.5,2.1,6.5,5.1,8.5
		c4.1,2.9,8.1,5.8,12.3,8.5c5.4,3.5,11.6,3.4,17.8,3.2c1.1,0,2.1-0.1,3.2-0.1C157,175.9,158.6,175.9,159.2,173.6z"/>
	<path class="st0" d="M137.2,231.1c2.9,4.4,7,2.2,11,2.2c-0.4,1.1-0.7,2-1.1,2.8c-2.4,3.9-4.6,8-9.1,10.1c-1.3,0.6-2.2,2.3-3,3.7
		c-1.5,2.7-2.8,5.6-4.3,8.3c-0.4,0.8-1.2,1.5-1.8,2.3c-0.2-0.1-0.5-0.2-0.7-0.2c0.1-1.3,0-2.6,0.5-3.7c1.1-2.8,2.1-5.6,3.6-8.1
		c1.6-2.7,2.3-5.5,2.3-8.5C134.4,236.7,135.5,234,137.2,231.1z"/>
	<path class="st0" d="M236.4,253.2c0,0.8-0.2,2-0.1,3.2c0.4,6.6,0.7,13.1,1.2,19.7c0.3,3.5-1.3,8.9-4,11.3c-0.1-1.3-0.2-2.2-0.2-3.1
		c0.1-1.3,0.5-2.6,0.4-3.9c-0.1-4.3-0.4-8.6-0.6-12.9c-0.3-4.8-0.8-9.6-5-13c-1.3-1-2.2-2.6-3.5-4.2
		C228.8,251.3,232.4,252.2,236.4,253.2z"/>
	<path class="st0" d="M113.7,124.4c-0.6,0.7-1.2,1.3-2.2,2.4c0.2-1.1,0.1-1.7,0.3-2.2c1.2-3.2,2.5-6.2,5-8.7c1.6-1.6,2.1-4.2,3-6.5
		c0.9-2.2,1.8-4.4,4.2-6c-1,7.6-0.6,15-4.7,21.5c-1.6,2.6-2.7,2.9-4.8,0.5C114.3,125.1,114.1,124.8,113.7,124.4z"/>
	<path class="st0" d="M84.6,116.4c2.8-6.3,5.4-12.2,8.1-18.4c0.2,0.9,0.6,1.8,0.5,2.7c-0.5,4.5,0.7,8.6,2.5,12.6
		c0.3,0.8,0.1,1.8,0.2,2.8c-0.9-0.2-1.7-0.4-2.6-0.5c-1.5-0.2-3-0.4-4.4-0.3C87.7,115.2,86.6,115.8,84.6,116.4z"/>
	<path class="st0" d="M118.7,198.4c1.1,1.5,2.1,2.9,3.2,4.4c-0.2,0.3-0.5,0.6-0.7,0.9c-1-0.5-2.3-0.8-3-1.6
		c-0.6-0.8-0.5-2.1-0.7-3.2C117.9,198.8,118.3,198.6,118.7,198.4z"/>
	<path class="st0" d="M246.2,174.7c-1-0.9-1.7-1.6-2.4-2.3c0.6-0.3,1.2-1,1.6-0.9c1.1,0.2,2,0.9,3.1,1.3
		C247.8,173.3,247.2,173.9,246.2,174.7z"/>
	<path class="st0" d="M114.3,189c0.1,1.2,0.3,2.3,0.4,3.5c-0.2,0.1-0.4,0.2-0.6,0.4c-0.5-0.4-1.5-0.9-1.5-1.3c0-0.9,0.6-1.8,0.9-2.7
		C113.8,188.9,114,188.9,114.3,189z"/>
	<path class="st0" d="M235.3,172.1c1.2,0.1,2.4,0.2,3.7,0.3c0,0.3,0,0.6-0.1,0.8c-1.3,1.2-2.5,0.4-3.7-0.3
		C235.3,172.6,235.3,172.4,235.3,172.1z"/>
</g>
</svg>
