<?xml version="1.0" encoding="utf-8"?>
<!-- Generator: Adobe Illustrator 27.8.0, SVG Export Plug-In . SVG Version: 6.00 Build 0)  -->
<svg version="1.1" id="Layer_1" xmlns="http://www.w3.org/2000/svg" xmlns:xlink="http://www.w3.org/1999/xlink" x="0px" y="0px"
	 viewBox="0 0 400 400" style="fill: rgba(0, 0, 0, 0.2);" xml:space="preserve">
<g>
	<path d="M147,241.6c3.9,1.4,7.5,1.5,11.2,0.8c3.4-0.7,4.4-2,3.5-5.4c-1-3.3-2.5-6.5-3.8-9.8c-0.3-0.8-0.8-1.7-0.8-2.5
		c-0.1-6.1-0.2-12.2,1.8-18.2c1.6-5,0.5-7.1-4.3-9.4c-2.6-1.2-4.3-3-5-5.7c-1.1-4.2-3.5-7.6-6.5-10.7c-2.4-2.4-4.1-5.4-5-8.7
		c-0.9-3.1-2.6-4-5.5-2.7c-3.7,1.7-7.5,3.3-9.9,7c-1.7,2.5-4,4.4-6.9,5.6c-2.6,1-3.3,2.9-2,5.4c1.3,2.5,3,4.9,4.4,7.3
		c1.3,2.2,2.8,4.3,3.5,6.7c1.8,6.4-3.7,12.3-10.2,11.1c-0.9-0.2-1.8-1.3-2.2-2.2c-1.1-2.5-1.9-5.1-2.9-7.7c-0.5-1.4-1.1-2.8-1.8-4.1
		c-1.3-2.1-3.2-2.4-5.1-0.9c-0.7,0.5-1.4,1.1-1.7,1.9c-1,2.5-3,4-5,5.6c-1.5,1.2-2.7,2.7-4,4c-1.7,1.8-3.4,3.9-6.3,3.2
		c-2.8-0.7-3.8-3.2-4.7-5.6c-0.9-2.6-0.3-5,1.7-6.8c1.7-1.5,3.6-2.8,5.5-4.1c1.3-0.9,2.4-1.8,2.6-3.5c0.1-0.5,0.5-1,0.8-1.5
		c0.3-0.4,0.7-0.6,1-1c1.2-1.5,2.1-3.3,1.3-5c-0.9-1.8-2.9-2.4-4.9-2.6c-2.6-0.3-5.4-0.4-7.8-1.3c-4.6-1.7-5.6-6.1-2.7-10
		c0.2-0.3,0.5-0.6,0.7-0.9c5.3-5.5,7.4-5.4,12.7-1.5c1,0.7,2,1.5,3,2.2c4,2.6,7.6,2.5,10.7-1c3-3.3,6.5-6.5,8.2-10.9
		c0.4-0.9,1.3-1.6,1.7-2.6c0.7-1.5,1.3-3.2,1.9-4.8c0.5-1.2,0.9-2.4,1.4-3.6c1.8-3.9,3.6-7.8,5.4-11.6c0.8-1.6,1.4-3.3,2.5-4.6
		c6.5-7.9,10.3-7.9,17.5-4.2c3.1,1.6,5.9,4,8.6,6.3c3.6,3,6.9,6.3,10.3,9.6c1.3,1.2,2.6,2.4,3.7,3.7c1.1,1.5,2.3,1.7,3.9,1.1
		c0.9-0.3,1.9-0.7,2.8-0.8c1.7-0.1,2-1.1,2-2.5c-0.2-3.7,0.8-5.5,4.4-6.4c2.4-0.6,3.3-2.1,4.2-4.2c3-6.8,1-12.3-3.5-17.6
		c-5.1-6-7.9-13-8.6-20.8c-0.2-2.5-0.3-5.4,0.8-7.5c1.7-3.1,3.2-6.4,6.7-8.3c4.5-2.4,7.4-6.7,9.4-11.2c1.8-4.1,4.7-6.7,8.4-8.9
		c2.5-1.5,5-3.3,7-5.4c4.5-4.6,10.5-4.9,15.1-0.4c2,1.9,3.9,3.9,4.3,7c0.1,0.7,1.1,1.5,1.9,1.8c3.4,1.5,4.8,4.4,5.8,7.7
		c0.4,1.4,0.7,2.8,1.2,4.1c0.8,2,1.7,4,2.8,5.9c0.7,1.1,1.3,2,0.5,3.3c-0.7,1.1-0.4,2.1,1,2.3c2.1,0.3,3.1,1.8,3.9,3.5
		c2.6,6.1,3.2,12.4,1.5,18.7c-0.5,1.7-1.8,3.3-3.1,4.6c-1.5,1.4-2.6,2.6-2.4,4.9c0.3,2.6-1.6,4.4-3.4,6.1c-3.5,3.4-4,4.9-1.7,9.2
		c4,7.5,8.1,14.8,15.5,19.7c2.9,2,5.6,2.6,8.9,2.3c4.9-0.6,9.8-1,14.7-1.7c1.4-0.2,2.9-0.4,4.1-1.1c4.1-2.1,8.1-1.2,11.7,0.8
		c4.5,2.5,8.2,6,11.1,10.5c3.3,4.9,7.1,9.5,10.8,14.1c1.5,1.9,1.8,4,1.3,6.1c-0.7,3.1,0.1,5.7,2.1,8c2.9,3.4,5.9,6.6,8.9,9.8
		c1.9,2,4.3,2.2,6.7,1c1.8-0.9,3.5-2,5.2-3.1c1.4-0.9,2.7-2.1,4.1-3.1c1.9-1.3,4.1-1.6,6.1-0.3c3,1.8,4.8,4.7,5.4,8
		c0.5,2.8-1.2,4.8-3.5,5.7c-3.6,1.6-7.4,2.8-11.2,3.9c-1.8,0.6-2.8,1.5-1.9,3.2c1.6,3.3,3.2,6.6,5.4,9.6c1.4,1.9,3.6,3.2,5.5,4.6
		c1.5,1,2.1,2.2,2,3.9c-0.2,2.8-1.8,4.7-4.1,6.1c-2.1,1.2-4,0.3-5.9-0.8c-3.5-2.1-6.6-4.6-8.6-8.2c-0.5-1-1.3-1.8-2-2.6
		c-2.4-2.9-4-3-6.5-0.2c-1.8,2-3,4.2-3,7c0,0.5-0.1,0.9-0.1,1.4c-0.5,4-2.8,5.6-6.7,4.6c-1.4-0.4-2.8-1-4.2-1.7
		c-2.9-1.6-4.4-4.4-3.5-7.5c1.3-4.9,2.7-9.8,6.2-13.8c0.5-0.6,1-1.2,1.4-1.9c2-3.2,1-5.8-2.8-6.1c-3.1-0.3-5-1.8-6.9-3.8
		c-1.8-1.8-3.7-3.4-5.7-5c-1.6-1.3-2.5-2.9-2.2-4.9c0.3-1.6-0.3-2.3-1.5-3.1c-2.1-1.3-3.4-3.1-3.7-5.7c-0.1-1.1-1.1-2.4-2.1-3.1
		c-2.5-1.6-5.2-1.7-8.1-0.9c-3.6,1-7.1,1.9-10.7,2.8c-2.3,0.6-4.6,1.1-6.7,2c-2.7,1-3.5,2.7-2.6,5.4c0.8,2.5,1.7,5,0.1,7.5
		c-0.1,0.1-0.1,0.2-0.1,0.4c-0.6,8.1-3.2,15.8-4.6,23.8c-0.9,5.4-3.9,10-6.8,14.6c-0.8,1.3-1.7,2.7-2.3,4.1c-1,2.5-0.3,4.7,2.2,5.7
		c2.1,0.8,4.4,1,6.6,1.5c1,0.3,2.1,0.6,3,1.1c2.6,1.4,5.2,2.9,7.8,4.3c3.2,1.7,6.5,3.3,9.7,4.9c1.4,0.7,3,1.2,4.4,1.9
		c0.9,0.5,1.7,1.1,2.5,1.8c1.6,1.3,3.3,2.7,4.9,4.1c0.8,0.7,1.9,1.2,2.3,2c2.7,5.1,5.1,10.3,2.9,16.1c-1.3,3.6-3.4,6.8-5.2,10.2
		c-1.2,2.2-2.8,4.2-3.8,6.5c-1.3,3-0.1,4.8,3.1,5.1c1.5,0.2,3-0.1,4.5-0.2c1.4-0.1,2.9-0.1,4.2-0.5c1.4-0.5,2.8-1.4,3.7-2.5
		c1-1.2,1.9-1.6,3.3-1.2c0.7,0.2,1.4,0.2,2.1,0.5c2.9,1.1,5.1,0.2,6.8-2.2c0.9-1.2,1.8-2.4,2.5-3.7c3-5.7,11.6-8.6,17.5-5.9
		c3.2,1.5,4.3,3.4,4.1,7.2c-0.2,3.7-1.5,5.4-4.9,6.7c-1.6,0.6-3.3,1.4-4.6,2.4c-1.8,1.3-1.7,2.6,0.1,3.9c2.5,1.8,5.3,3.1,8.4,3.3
		c1.8,0.1,3,0.9,3.4,2.6c0.7,2.5,1.3,5,2,7.5c0,0.2,0,0.4,0,0.6c-0.2,2.6-5.3,6.2-7.6,5.1c-4.7-2.2-9.6-4.1-13.3-8
		c-0.9-0.9-1.4-2.2-2.1-3.2c-0.9-1.3-1.7-2.8-2.8-3.9c-2-1.8-3.9-1.2-4.9,1.3c-1.7,4.4,0.5,11.1,4.7,13.7c1.6,1,2.3,2.2,2.3,4
		c0,1.8,0.3,3.6,0.3,5.5c0,2.9-1.4,5.2-4.1,6.3c-2.7,1.1-5.5,1-7.9-1c-2.2-1.9-3.4-4.4-4-7.2c-0.4-1.6-0.8-3.3-1.4-4.8
		c-0.7-1.9-1.8-3.6-2.4-5.5c-1.5-4.2-4.6-6.1-8.9-6.3c-4.6-0.2-9.1-0.1-13.7-0.4c-5.9-0.4-11.7-1-17.5-1.6
		c-6.6-0.7-10.8-6.9-9.1-13.4c0.3-1,0.8-1.9,1.4-2.8c1.8-2.6,2.3-5.3,0.8-8.3c-1.5-2.9-4.1-3.8-6.9-3.3c-5.1,0.9-9.5-0.6-13.7-3.1
		c-0.8-0.5-1.6-1-2.2-1.6c-2.2-2.2-4.9-3.2-8-3.8c-1.6-0.3-3.1-1.2-4.6-1.9c-1.3-0.6-2.6-1.5-3.9-1.9c-6.1-1.9-12.1-0.6-18.1,0.7
		c-3.3,0.7-6.6,1.3-10,1.9c-0.6,0.1-1.3,0.2-1.9,0.1c-2.8-0.5-5.5-1.1-8.4,0.4c-1.1,0.6-3.1-0.4-4.7-0.7c-1.3-0.3-2.5-0.9-3.8-0.8
		c-2.8,0.2-4.7,3.4-3.5,5.9c0.7,1.6,2,2.9,2.9,4.4c0.5,0.9,0.7,2,1,3c0.3,1.4,0.3,3,0.9,4.2c3.1,5.6,1.4,9.4-5,10.4
		c-1.4,0.2-2.9,0.1-4.3,0c-2.1-0.2-4.2-0.5-6.3-1c-1.2-0.3-2.2-0.9-3.3-1.4c-3.1-1.4-6.2-3.1-9.4-4.2c-4.2-1.4-8.5-2.4-12.8-3.5
		c-1.1-0.3-2.2-0.7-3.3-1.1c-2.1-0.7-2.9-2.1-2.9-4.3c0.1-3.4-0.9-3.9-3.8-2.1c-1.7,1-3.2,1.3-5.1,0.6c-0.8-0.3-1.9-0.2-2.6,0.1
		c-1.3,0.5-2.7,1.2-3.7,2.1c-3.4,3.1-6.7,6.3-9.9,9.6c-2.2,2.4-7.6,3.9-10.7,2.7c-2-0.8-2.9-2.4-3.1-4.4c-0.5-4.5,2-9.1,6-11.3
		c3.1-1.8,6.1-3.8,9-5.8c2.2-1.5,2.4-3.4,0.8-5.8c-1.7-2.7-3.4-3.5-5.8-2.1c-1.7,0.9-3,2.4-4.7,3.5c-1,0.7-2.3,1.5-3.4,1.5
		c-3.8-0.2-7.5-0.6-11.2-1.2c-2.2-0.3-4.3-1.1-4.8-3.7c-0.5-2.6,0.6-4.8,2.5-6.6c0.8-0.8,1.8-1.6,2.3-2.6c1.1-1.9,2.6-2.3,4.5-1.6
		c3.1,1.1,6.3,1,9.4,0.2c2.1-0.6,2.6-1.9,1.2-3.6c-0.7-0.8-1.6-1.6-2.5-2.1c-1.7-1-2.6-2.4-2.4-4.3c0.4-2.6,0.8-5.3,1.6-7.8
		c0.6-2,2.5-2.3,4.3-2.3c6.7,0,12.1,4.1,14.1,11.1c0.8,2.6,1,5.4,1.7,8c0.8,3.1,1.7,4.5,5.2,4.3c1.8-0.1,3.3,0.9,3.5,2.5
		c0.7,5.4,4.7,6.9,8.8,8.5c1.6,0.6,3.1,1.6,4.6,2.4c2.3,1.3,4.5,2.9,7,3.7c3.9,1.2,6.2-1,4.9-4.9c-1.3-3.9-3.1-7.7-4.8-11.5
		c-0.7-1.6-1.6-3.1-2.5-4.6c-1.5-2.7-2.3-5.5-2.6-8.5c-0.2-2.5-0.9-5-1.5-7.4c-1-3.9-0.9-7.6,1.7-10.9c2-2.4,4.4-3.3,7.6-2.7
		c3.7,0.7,7.5,1,11.1,1.8c1.4,0.3,2.7,1.3,4,2.1c1.3,0.9,2.4,2.2,3.8,2.9c1.6,0.8,2.6,0.1,2.9-1.6C146.8,244.2,146.9,243,147,241.6z
		 M219.1,76.1c-0.5-0.2-0.9-0.3-1.3-0.4c-2.5-0.2-4-1.5-5-3.7c-0.8-1.7-2-3.3-3.2-4.9c-1.3-1.8-2.9-1.9-5-1.3
		c-5.1,1.6-7.9,5.6-10.2,9.9c-2,3.5-3.8,7-7.1,9.6c-2,1.6-3.6,3.8-5.1,5.9c-0.6,0.8-0.9,2.4-0.5,3.2c2.7,5.3,5.3,10.6,8.5,15.6
		c2,3.2,4.8,6,7.3,8.9c2.4,2.7,4.4,5.5,3.4,9.3c-1.1,4.1-2.6,8-7.7,8.7c-1.5,0.2-2.7,1.1-3.3,2.7c-1.6,4-4,7.2-8,9.2
		c-2.3,1.2-3.7,3.1-4.4,5.7c-0.5,1.9-1.4,3.8-2.3,5.6c-1.2,2.6-3.4,3.6-6.2,3.3c-0.6-0.1-1.3-0.1-1.9-0.1c-4.3-0.6-8.2-1.7-10.3-6.3
		c-0.8-1.9-2.3-3.5-3.7-5c-0.8-0.9-1.9-1.6-3-2.1c-3.6-1.6-7.3-3.1-10.9-4.6c-1-0.4-2-1-3-1.3c-1.8-0.6-3.3-0.2-4.4,1.5
		c-1.2,1.8-2.4,3.6-3.8,5.2c-1.4,1.6-3,3-4.5,4.5c-0.4,0.4-0.7,1.4-0.5,1.6c0.5,0.6,1.4,1.2,2,1.1c1-0.2,2-0.8,2.9-1.5
		c1.4-1.1,2.6-2.4,4.1-3.3c1-0.6,2.6-1.3,3.6-1c2.8,0.8,5.7,1.9,8.2,3.5c1.3,0.8,2.2,2.9,2.5,4.5c0.4,2.1,1.3,3.7,2.9,4.9
		c1,0.8,2.2,1.4,3.2,2.2c0.7,0.6,1.4,1.4,1.8,2.2c1.2,2.1,2.2,4.4,3.4,6.5c1.3,2.4,2.9,4.6,4.1,7c1.3,2.7,3,4.6,6.1,5.1
		c1.6,0.3,3.2,1,4.8,1.7c1.4,0.7,1.9,1.8,1.2,3.4c-0.4,1.1-0.7,2.3-0.7,3.4c-0.4,5.5-0.8,10.9-1,16.4c-0.1,2.7-0.5,4.9-3.3,6.3
		c-1.8,0.9-1.6,2.2,0.3,3.1c2,1,3,2.4,3,4.8c0,2.6,0,5.4,2.2,7.5c3,2.8,4.6,6.3,5.3,10.2c0.2,1.3,0,2.9-0.5,4.2
		c-1.9,5.1-5.8,7.3-11.1,7.4c-6,0.1-12,0.1-18,0.1c-1,0-2.2,0.1-3-0.4c-1.5-0.9-2.8-0.5-4.3-0.2c-1.6,0.3-3.3,0.5-5,0.5
		c-2.5,0-5-0.2-7.6-0.3c-1.3,0-2.9,0.3-3,1.9c-0.1,1.3,0.3,3.2,1.2,3.8c2.5,1.7,3.6,4.2,4.9,6.7c0.5,0.9,1.6,1.8,2.6,2
		c4.1,0.6,8.2,1.3,12.2,1.3c10.4,0,20.7-0.2,31.1-0.4c3.5-0.1,6.6-0.9,9.2-3.6c1.5-1.5,3.3-1.8,5.4-1.5c2.8,0.5,5.5,0.8,8.3,1.3
		c1.3,0.2,2.5,0.6,3.7,1.1c1.3,0.5,2.4,1.5,3.7,2c3.9,1.5,8,2.5,11.6,4.5c4.2,2.2,8.3,4.3,13.1,5c4.6,0.7,9,2.7,13.3,4.5
		c4.4,1.8,6.4,6.5,5.6,11.1c-0.5,2.6-1.1,5.2-1.2,7.9c-0.1,1.2,0.7,3.1,1.5,3.5c2.8,1.2,5.8,1.8,8.7,2.5c1.1,0.3,2-0.5,2-1.8
		c0-4.9,2.3-9,4.8-13c0.9-1.4,1.6-3.3,1.6-4.9c-0.1-3-0.8-6-1.4-9c-0.4-2.5-2-4-4.2-5c-3.3-1.5-6.6-3.1-10-4.5
		c-3.6-1.4-7.2-2.5-10.9-3.8c-2.8-1-5.7-1.7-8.4-2.9c-2.2-0.9-4.1-2.5-6.3-3.4c-5.3-2.3-7.3-6.2-5.7-11.8c1.2-4.3,2.5-8.6,3.6-13
		c0.5-2.1,1.4-4,2.7-5.7c0.9-1.2,1.3-2.7,1.8-4.2c0.5-1.4,0.8-2.8,1.2-4.2c0.7-2.1,1.6-4.2,2.1-6.4c0.7-2.6,1-5.4,1.6-8
		c0.4-1.8,1.2-3.6,1.6-5.4c0.6-3.4,0.7-6.6-2-9.5c-2.8-2.9-2.5-6.6,0.8-9.2c2.6-2,5.5-3.8,8.6-4.9c4-1.4,8.3-2,12.5-2.9
		c4.4-1,8.7-2,13.1-2.9c2.5-0.5,5-0.8,7.5-1.1c0.6-0.1,1.3,0.4,1.9,0.7c-0.3,0.6-0.6,1.2-0.9,1.8c-0.1,0.2-0.3,0.3-0.4,0.4
		c-0.3,0.7-0.7,1.3-1,2c0.8,0.4,1.6,1,2.4,1c2.8,0,5.1-1.4,6.9-3.5c1.5-1.7,1-3.1-1.3-3.6c-0.6-0.1-1.3,0.1-1.9,0
		c-0.7-0.2-2-0.5-2.1-0.9c-0.9-3.9-3.5-4.8-7-4.3c-0.1,0-0.3,0-0.4,0c-3.9-0.3-7.8-0.6-11.7-0.8c-0.7,0-1.9,0.3-2.2,0.8
		c-2.2,3.1-5.1,3-8.4,2.6c-2.4-0.3-4.9-0.4-7.3-0.2c-4.2,0.4-8.4-0.4-10.3-5.7c-0.6-1.6-1.7-3-2.7-4.5c-2.3-3.3-4.7-6.5-7-9.9
		c-2.7-4.1-5.3-8.4-8-12.5c-2.4-3.8-3-7.7-0.8-11.6c1.7-3.1,3.6-6,5.6-8.9c2.9-4.2,4.4-8.6,3.4-13.8c-0.9-4.4-1.8-8.6-4.7-12.4
		C218.1,84.8,216.6,80.7,219.1,76.1z M138.7,288.6c0-2.1-2.3-4.4-4.2-4.4c-1.8,0.1-3.8,2.6-3.8,4.8c0,2.1,1.7,3.5,4.1,3.5
		C137.2,292.6,138.7,291,138.7,288.6z M239.4,258.4c-0.1,0.2-0.2,0.5-0.2,0.7c2.5,0.8,4.9,1.7,7.7,2.6
		C245.2,257.7,242.4,256.6,239.4,258.4z M176.5,91c-1.5,0.4-2,1.6-2,2.9c0,1.6,0.3,3,1.8,3.9C177.8,95.9,177.9,92.9,176.5,91z
		 M106.6,182.9c-1.2,0.8-2.1,1.4-3.1,2c0.7,0.5,1.4,1.3,2.1,1.4c1.2,0.2,2.4-0.4,2.5-1.8C108.1,184,107.3,183.6,106.6,182.9z
		 M311.9,217.9c0.7-0.8,1.4-1.5,1.3-1.7c-0.4-0.8-1.1-1.8-1.8-2c-0.5-0.1-1.3,1-2,1.6C310.1,216.4,310.8,217,311.9,217.9z
		 M114.9,160.9c0,0.3-0.1,0.5-0.1,0.8c0.9,0.3,1.8,0.9,2.6,0.9c0.4,0,0.8-1,1.3-1.6c-0.1-0.2-0.2-0.4-0.3-0.6
		C117.2,160.6,116.1,160.7,114.9,160.9z M292.1,188.9c0.2-0.1,0.3-0.3,0.5-0.4c-0.3-0.8-0.4-1.7-0.9-2.4c-0.2-0.3-1.1-0.2-1.7-0.3
		c0,0.5-0.3,1.2,0,1.5C290.5,187.9,291.4,188.3,292.1,188.9z M189.8,125.2c-0.2,0.2-0.3,0.4-0.5,0.6c0.1,1.3,0.7,2.1,2,2.3
		c0.3,0,0.7-0.7,1.1-1.1C191.5,126.4,190.6,125.8,189.8,125.2z M189.3,121.6c0-0.2,0-0.4,0-0.6c-0.7-0.2-1.4-0.6-2.2-0.7
		c-0.4,0-0.9,0.6-1.3,0.9c0.4,0.3,0.8,0.9,1.3,0.9C187.8,122.1,188.5,121.7,189.3,121.6z M254.7,261.8c-0.1,0.4-0.1,0.7-0.2,1.1
		c0.7,0.2,1.4,0.6,2.2,0.6c0.1,0,0.4-1,0.5-1.6C256.4,261.9,255.5,261.9,254.7,261.8z"/>
</g>
</svg>
