<?xml version="1.0" encoding="utf-8"?>
<!-- Generator: Adobe Illustrator 27.8.0, SVG Export Plug-In . SVG Version: 6.00 Build 0)  -->
<svg version="1.1" id="Layer_1" xmlns="http://www.w3.org/2000/svg" xmlns:xlink="http://www.w3.org/1999/xlink" x="0px" y="0px"
	 viewBox="0 0 400 400" style="fill: rgba(0, 0, 0, 0.2);" xml:space="preserve">
<g>
	<path d="M170.6,166.8c-0.2-1.4-0.2-2.1-0.4-3.4c2.9-0.3,5.9-1,8.9-1c5.4,0.1,10.7,0.6,16.1,0.8c7.5,0.2,15.1,0.2,22.7,0.5
		c1.8,0.1,3.9,0.4,5.3,1.4c4.9,3.4,9.6,7.1,11.7,13c0.3,0.8,0.5,1.6,0.9,2.3c4.7,8.8,2.5,16.9-2.4,24.7c-2.5,3.9-5.4,7.5-8.4,11.1
		c-1,1.2-2.3,2.2-3.7,2.8c-6.8,2.7-13.6,5.3-20.6,7.7c-1.4,0.5-3.3,0-4.8-0.5c-5.6-2-11.2-3.9-16.5-6.2c-8.5-3.7-12.2-11.9-10-20.9
		c2-8.2,9.2-15.7,16.5-16.3c4.4-0.4,9,0,13.4,0.7c4.1,0.6,8.2,1.7,12,3.2c2.1,0.8,4.1,2.7,5.2,4.6c2.5,4.7,0.2,9-5.1,10.1
		c-0.7,0.1-2-0.5-2.3-1.1c-3.7-6.9-10.3-8-16.8-7.3c-4.2,0.5-8.8,2.3-11.6,6.4c-0.4,0.5-1.3,0.7-1.6,0.9c0.3,1.2,0.6,2.4,0.8,3.6
		c0.2,1.8,0.8,3.1,2.7,4c2.8,1.3,5.3,3,8,4.5c2.3,1.3,4.5,1.5,7.3,0.9c4.5-0.9,9.2-1,13.8-1.5c1.1-0.1,2.4-0.1,3.2-0.7
		c5.6-4.4,11-9.1,12.1-16.8c0.2-1.4,0.2-3.1-0.5-4.3c-1.8-3.5-3.7-7-6-10.2c-1.4-2-2.3-3.8-2-6.2c0.1-0.5-0.1-1.1-0.1-1.8
		c-0.5,0.1-0.8,0.1-1,0.2c-2.7,2.8-5.9,2.3-9.4,1.9c-6.7-0.8-13.4-1.1-20.1-1.4c-1.5-0.1-3.1,0.8-4.7,1.3c-2.9,1-5.8,2-8.7,3
		c-8.9,2.8-14.1,9.3-17.6,17.6c-0.6,1.4-2.1,2.4-3.1,3.5c0.4,1.5,0.8,3.3,1.2,5c0.6,3.2,1.7,6,4.2,8.4c3.5,3.6,6.4,7.7,9.8,11.4
		c1.1,1.2,2.7,2,4.2,2.9c1.4,0.8,2.9,1.2,4.2,2.1c9.6,6.2,20.4,6.8,31.1,6c6.3-0.5,12.4-2.8,17.9-6.2c1.3-0.8,2.3-2.2,3-3.5
		c1.8-3.1,2.5-6.6,5.2-9.3c1.2-1.2,1.5-3.4,2.2-5.1c0.9-2,1.9-3.9,4.3-4.5c1.5-0.4,1.4-1.6,1.3-2.9c-0.2-1.3-0.1-2.6-0.1-3.9
		c-0.1-4.7-0.2-9.4-0.3-14c-0.1-3.1-0.4-6.3-0.5-9.4c0-1.9-0.6-3.4-2-4.5c-4.7-3.4-9.3-7-14.2-10.1c-1.9-1.2-4.5-1.5-6.9-1.7
		c-4-0.3-8.1,0.2-12.1-0.1c-4.9-0.4-9.9-0.9-14.5-2.3c-4.7-1.4-8.8-0.6-12.6,1.9c-4.1,2.7-8.2,2.5-12.7,1.3c-1-0.3-2.2,0-3.2,0.4
		c-1.6,0.6-3.1,1.6-4.7,2c-0.8,0.2-1.9-0.3-2.9-0.5c0.5-0.9,0.8-1.9,1.5-2.5c1.1-0.9,2.4-1.6,3.6-2.2c4.5-2.3,8.8-4.8,13.5-6.5
		c3-1.1,6.5-1.1,9.9-1.2c2.2-0.1,4.5,0.6,6.7,0.6c7.3,0.2,14.6,0.2,21.9,0.5c8.2,0.3,16,2,23.1,6.8c4,2.7,7.2,5.8,9.6,9.8
		c1.8,3,3.4,6.2,5,9.2c3.2,6,2.6,12.5,2.5,18.9c0,2.2-0.2,4.5-0.8,6.7c-0.7,2.5-2,4.9-3.1,7.3c-1.6,3.3-3.3,6.5-4.9,9.8
		c-0.5,1.1-1,2.3-1.3,3.6c-2.1,8.5-7.8,13.5-15.6,16.6c-5.1,2-10.3,3.9-15.5,5.9c-6.4,2.4-12.8,2.3-19.3,0.2
		c-8-2.6-16.1-4.7-23.9-7.6c-3.4-1.3-6.3-3.9-9.1-6.3c-3-2.6-5.7-5.5-8.3-8.5c-1.5-1.8-2.7-4-3.4-6.2c-1.9-5.9-3.6-11.8-5.1-17.9
		c-0.4-1.8,0.1-3.8,0.5-5.7c0.6-2.8,1.3-5.5,2.2-8.2c0.4-1.4,1-3,2-3.9c4.5-4,9-8.1,13.8-11.7C163.7,166.5,166.7,164.7,170.6,166.8z
		 M182,166.2c-0.7,0.9-1.1,1.5-1.6,2.1c0.4,0.3,1,1,1.3,0.9c0.6-0.2,1.1-0.8,1.7-1.2C183,167.5,182.6,167.1,182,166.2z M168.9,230.5
		c-1.2-0.6-1.8-1-2.5-1.2c-0.3-0.1-0.7,0.5-1,0.7c0.5,0.5,1,1.1,1.7,1.4C167.2,231.6,167.8,231.1,168.9,230.5z"/>
	<path d="M51.1,211.6c0.2,0.9,0.5,2.1,0.9,3.9c0.8-1.1,1.5-1.6,1.8-2.4c0.6-1.5,1.4-2,3.2-1.9c10.2,0.5,20.3,0.8,30.5,1.1
		c6.6,0.2,13.3,0.7,19.9,0.6c4,0,8-1,12-1.2c4.5-0.3,9.1-0.6,13.7-0.3c2.2,0.2,4.6,1.4,6.4,2.7c2.6,1.9,1.6,5.5-1.5,6.7
		c-6.3,2.4-12.8,4-19.6,4.2c-5.9,0.1-11.8,1.2-17.6,1.1c-7.7,0-15.3-0.7-23-1.2c-2.7-0.2-5.3-1.1-8-1c-3.2,0.1-6.4,1.2-9.7,1.4
		c-8.7,0.7-17.5,0.9-26.2-0.5c-4.1-0.7-5.8-3.3-5.3-7.4c0.7-4.9,1.2-5.6,6.2-5.9C40.2,211.4,45.6,211.6,51.1,211.6z M87.9,221.2
		c0.1-0.4,0.2-0.7,0.4-1.1c-1-0.8-2-1.7-3-2.5c-0.3,0.1-0.5,0.3-0.8,0.4c0.2,0.8,0.2,2,0.8,2.5C85.9,221,87,221,87.9,221.2z
		 M95.3,218.4c-0.2,0-0.4,0.1-0.7,0.1c-0.2,0.5-0.6,1.2-0.5,1.6c0.3,0.7,0.9,1.3,1.4,1.9c0.4-0.5,1.2-1,1.1-1.4
		C96.4,219.8,95.8,219.1,95.3,218.4z"/>
	<path d="M318.1,199.6c9.8-0.4,20.1-0.9,30.3-1c6.1-0.1,12.2,0.3,18.3,0.6c3.5,0.2,4,0.8,4.8,4.2c1.3,5.7-0.8,8.9-6.5,9.2
		c-8.6,0.4-17.3,0.2-26,0.1c-2.3,0-4.5-1.4-6.7-1.3c-4.1,0.2-8.1,1.2-12.2,1.5c-6.6,0.5-13.3,1-19.9,0.8c-7.4-0.1-14.9-0.5-22.3-1.5
		c-5.4-0.7-10.7-2.4-16-4.1c-2.8-0.9-3.4-4.6-1-6.3c1.9-1.4,4.4-2.8,6.6-2.8c7,0,14,0.9,21,1.1c4.9,0.1,9.8-0.3,14.7-0.5
		c1.4-0.1,2.8-0.1,4.3,0c1.4,0.1,2.8-0.1,3.6,1.8c0.6,1.4,5.5,2.3,6.6,1.4C318.2,202.2,318,200.9,318.1,199.6z M283.3,205.7
		c0,0.2-0.1,0.4-0.1,0.6c0.8,0.5,1.6,1.2,2.5,1.6c0.5,0.2,1.3,0,1.8-0.4c0.4-0.3,0.7-1.2,0.5-1.5c-0.3-0.5-1-0.9-1.6-0.9
		C285.4,205.1,284.3,205.4,283.3,205.7z"/>
	<path d="M253.3,156.7c-1.9,0.1-2.8-0.6-2.1-1.9c1.7-3.4,3.6-6.7,5.5-10c0.2-0.4,0.6-0.7,1-0.8c3.6-1.1,5.2-4.1,6.7-7.1
		c1.8-3.4,4.1-6.4,7-8.9c5.8-4.9,11.6-9.9,17.3-15c1.8-1.7,3.2-3.9,4.8-5.8c2.1-2.6,3.8-5.5,6.2-7.6c4.7-3.9,9.7-7.4,14.7-11
		c2.5-1.8,5.1-1.3,7.6,0.1c2.5,1.4,3.3,3.6,1.8,6c-1.2,2-2.6,3.9-4.4,5.3c-4.6,3.6-8.6,7.6-10.9,13.2c-2,4.7-5.7,8.5-10.4,10.5
		c-2.2,0.9-3.6,1.7-4.7,3.7c-0.6,1.2-2,2-2.6,3.2c-4.2,7.6-10.8,12.5-18.1,16.6c-5.1,2.9-10.4,5.3-15.6,7.9
		C255.8,155.9,254.2,156.4,253.3,156.7z M273.4,132.4c1.2,0.2,2.4,0.3,3.6,0.5c-0.2-0.7-0.3-1.6-0.8-2
		C275,129.9,274.1,130.5,273.4,132.4z M271.2,133.9c-1.9,0.3-2.9,1-2.3,2.5c0.1,0.3,0.9,0.4,1.4,0.6
		C270.6,136,270.9,134.9,271.2,133.9z"/>
	<path d="M256.8,251.8c-0.2,1.3-0.5,2.4-0.7,3.6c0.2,0.1,0.3,0.3,0.5,0.4c1.1-0.7,2.3-1.4,3.7-2.3c5,3.3,10.5,6.4,13.8,11.8
		c3.2,5.2,7.4,9.1,12.4,12.3c5.1,3.2,7.7,8.1,10.3,13.2c0.8,1.6,1.9,3.2,3.2,4.4c2.6,2.6,5.6,5,8.2,7.6c0.9,0.9,1.5,2.1,2,3.2
		c0.8,1.8,0.2,3.4-1.2,4.6c-2.2,1.9-5.7,2.5-8.2,0.9c-7.4-4.6-15-9.2-19.7-16.7c-3.4-5.5-8.1-9.2-12.8-13.2c-4.7-4-9.3-8-13.6-12.3
		c-2-2-3.2-4.6-4.7-7.1c-1.6-2.5-2.9-5.2-6.1-6.2c-0.8-0.3-1.6-1.1-2.1-1.9c-1.6-2.8-3.1-5.6-4.5-8.5c-0.8-1.9,0-2.7,2-2.2
		c1.6,0.4,3.3,1.1,4.8,1.8C248.4,247.4,252.5,249.6,256.8,251.8z M258.2,262.8c1.4,0.8,2.3,1.3,3.3,1.9c0.2-0.6,0.7-1.3,0.5-1.7
		C261.4,261.8,260.3,261.5,258.2,262.8z M253.3,259.2c0.6-1,1.1-1.6,1.1-2.2c0-0.4-0.7-0.9-1.2-1.3c-0.4,0.5-1.1,1-1.2,1.6
		C252,257.7,252.7,258.3,253.3,259.2z"/>
	<path d="M80.7,96.2c0.8,0.3,2.1,0.6,3.1,1.3c6.1,3.9,12.9,7.5,16.8,13.6c6.5,10.1,16.3,16.5,24.7,24.5c3.6,3.4,6.9,7,9.1,11.5
		c1.3,2.5,2.8,4.7,5.7,5.7c1.1,0.4,2.1,1.7,2.8,2.8c1.4,2.4,2.6,4.9,3.8,7.4c0.3,0.6,0.4,1.8,0,2.2c-0.4,0.4-1.5,0.3-2.3,0.3
		c-0.4,0-0.9-0.2-1.3-0.4c-8.8-4.5-18.1-8.2-26-14.3c-3.7-2.9-7-6.1-9.2-10.2c-2.3-4.4-6.7-6.5-10.4-9.3c-1.7-1.3-3-2.1-1.9-4.5
		c0.7-1.6-0.6-2.1-1.8-1.5c-1.7,0.8-2.5,0.1-3.2-1.2c-1.2-2.3-2.3-4.7-3.6-6.9c-0.8-1.4-2-2.6-3.1-3.7c-2.1-2-4.4-3.8-6.6-5.8
		c-0.6-0.5-1.2-1.2-1.6-1.8c-1.4-1.8-2.8-3.7-1.6-6.1C75.2,97.1,77.7,96.6,80.7,96.2z M101.9,119.6c-0.8,2.2-0.5,3.6,0.9,4.3
		c0.7,0.3,1.7-0.1,2.6-0.1c0-0.3,0.1-0.5,0.1-0.8C104.4,122,103.3,121,101.9,119.6z M104.4,126.7c0,0.5,0,0.9,0,1.4
		c0.9,0,1.8,0,2.7,0c-0.1-0.5-0.2-1.5-0.5-1.5C106,126.5,105.2,126.7,104.4,126.7z"/>
	<path d="M93.9,314.1c0.9,0,1.6,0,2.3,0c0.1-0.2,0.3-0.4,0.3-0.5c-1.3-2.2-0.1-3.6,1.5-4.8c5.3-3.8,9.3-8.6,12-14.6
		c1.6-3.5,4.5-6.2,7.9-8.4c4.7-3,8.7-6.6,11.6-11.5c3.4-5.8,9.2-9.4,14.9-12.6c5.3-3,10.9-5.6,16.4-8.3c1.4-0.7,2.9-1.2,4.4-1.5
		c1.4-0.3,2.1,0.6,1.6,1.9c-2,4.5-3.2,9.6-8.5,11.8c-1.1,0.4-2.1,1.6-2.6,2.7c-5.1,10.7-14.6,17.2-23.2,24.6
		c-3.3,2.9-6.6,5.6-8.8,9.6c-3.3,5.9-8.9,9.8-14.3,13.7c-2.1,1.5-4.2,2.9-6.4,4.2c-2.8,1.6-5.5,0.9-8-0.9
		C93.3,318,92.9,316.2,93.9,314.1z M132.5,281.4c-1.7,0-3.4,0-3.8,2.1c-0.1,0.3,1,1.2,1.6,1.3C131.9,285,132.7,283.6,132.5,281.4z
		 M113.8,307.5c0.5,0,1-0.1,1.5-0.1c0-1.1,0-2.2,0-3.2c-0.7,0.1-1.3,0.1-2,0.2C113.4,305.3,113.6,306.4,113.8,307.5z M122.3,289.1
		c0.5-0.8,1-1.4,1-1.8c-0.1-0.5-0.7-0.9-1.1-1.3c-0.5,0.5-1.1,1-1.4,1.6C120.7,287.7,121.5,288.3,122.3,289.1z"/>
	<path d="M187.1,102.9c1.5-9.1-0.5-17.9-2.2-26.7c-1.2-6.6,0.7-11.9,4.6-16.8c1.7-2.1,3.7-4,6.7-3c3.1,1,5,3.3,5.5,6.5
		c0.3,1.9,0.1,3.9-0.2,5.8c-0.4,3.3-0.9,6.7-1.6,9.9c-0.4,2.1-1.2,4.1-2,6.2c-0.5,1.5-0.3,2.5,1.2,3.1c2.6,0.9,2.9,2.7,2.7,5.2
		c-0.2,3.1,0.3,6.3,0.3,9.4c0.1,7.3,0.1,14.6,0.1,22c0,4.3,0,8.5,0,12.8c0,3.3-2.5,4.8-4.9,6.1c-1.7,1-3.8-1-4.5-3.8
		c-1.5-6.1-2.8-12.2-4.6-18.3c-1.2-4.1-1.7-8.2-1.5-12.4C186.9,106.8,187.1,104.9,187.1,102.9z M198.3,113.4
		c0.2-0.4,0.4-0.8,0.6-1.2c-0.6-0.2-1.4-0.7-1.8-0.5c-0.8,0.5-1.4,1.3-1.8,2.1c-0.1,0.2,0.9,0.9,1.4,1.4
		C197.2,114.7,197.7,114.1,198.3,113.4z M194.8,118.4c-0.3-0.2-0.5-0.4-0.8-0.6c-0.8,0.9-1.5,1.9-2.3,2.8c0.4,0.2,0.9,0.7,1.2,0.6
		C194.5,120.9,195.1,119.9,194.8,118.4z"/>
	<path d="M204.3,280.6c-0.3,8.1-0.6,16.2-0.9,24.4c0,1.1,0.1,2.2,0.3,3.3c0.3,2.1-0.2,3.7-2.4,4.5c-2.1,0.7-2.2,2-1.4,3.9
		c2.5,6,2.5,12.5,3.7,18.8c0.5,3-0.9,5.5-3.2,7.5c-2.7,2.3-5.3,2.5-7.8-0.1c-4.5-4.7-7.5-9.9-6.3-16.9c1.1-6,2.1-12.1,2.5-18.2
		c0.3-5.4-0.5-10.9-0.4-16.3c0.1-3.7,0.6-7.4,1.4-11c1.3-6.1,2.9-12,4.4-18c0.2-0.7,0.3-1.3,0.5-2c1.2-3.3,3.5-3.8,6.2-1.6
		c2.4,1.8,3.2,4.1,3.2,7C204.1,270.7,204.2,275.6,204.3,280.6C204.2,280.6,204.2,280.6,204.3,280.6z M191.1,291.2
		c1.1,1.1,1.9,2.1,2.8,2.8c0.4,0.3,1.1,0.1,1.6,0.2c0-0.6,0.3-1.4,0.1-1.8C194.8,290.8,193.4,290.3,191.1,291.2z M193.7,318.6
		c-1-0.8-1.5-1.3-2.1-1.7c-0.6,0.7-1.2,1.3-1.6,2.1c-0.1,0.2,1,1.3,1.3,1.2C192,320,192.6,319.4,193.7,318.6z"/>
</g>
</svg>
