<svg xmlns="http://www.w3.org/2000/svg" version="1.1" x="0" y="0" viewBox="0 0 196 20" xml:space="preserve"><style type="text/css">
	.st0{fill:none;}
	.st1{fill:#C7C2B7;}
</style><rect x="-1.3" y="0.2" class="st0" width="196.1" height="19.5"/><polygon class="st1" points="0.7 7.5 0.7 10.7 1.5 10.7 1.5 12.6 2.8 12.6 2.8 10.7 4.4 10.7 4.4 12.6 5.6 12.6 5.6 10.7 7.2 10.7 7.2 12.7 8.5 12.7 8.5 10.7 10 10.7 10 12.7 11.3 12.7 11.3 10.7 12.9 10.7 12.9 12.7 14.1 12.7 14.1 10.7 15.7 10.7 15.7 12.7 16.9 12.7 17 10.7 18.5 10.7 18.5 12.7 19.8 12.7 19.8 10.7 21.4 10.7 21.3 12.7 22.6 12.7 22.6 10.7 24.2 10.7 24.2 12.7 25.4 12.7 25.4 10.7 27 10.7 27 12.7 28.3 12.7 28.3 10.7 29.8 10.8 29.8 12.7 31.1 12.7 31.1 10.8 32.7 10.8 32.7 12.7 33.9 12.7 33.9 10.8 35.5 10.8 35.5 12.7 36.8 12.7 36.8 10.8 38.3 10.8 38.3 12.7 39.6 12.7 39.6 10.8 41.2 10.8 41.2 12.7 42.4 12.8 42.4 10.8 44 10.8 44 12.8 45.3 12.8 45.3 10.8 46.8 10.8 46.8 12.8 48.1 12.8 48.1 10.8 49.7 10.8 49.7 12.8 50.9 12.8 50.9 10.8 52.5 10.8 52.5 12.8 53.7 12.8 53.8 10.8 55.3 10.8 55.3 12.8 56.6 12.8 56.6 10.8 58.2 10.8 58.2 12.8 59.4 12.8 59.4 10.8 61 10.8 61 12.8 62.2 12.8 62.2 10.8 63.8 10.8 63.8 12.8 65.1 12.8 65.1 10.9 66.7 10.9 66.6 12.8 67.9 12.8 67.9 10.9 69.5 10.9 69.5 12.8 70.7 12.8 70.7 10.9 72.3 10.9 72.3 12.8 73.6 12.8 73.6 10.9 75.1 10.9 75.1 12.8 76.4 12.9 76.4 10.9 78 10.9 78 12.9 79.2 12.9 79.2 10.9 80.8 10.9 80.8 12.9 82.1 12.9 82.1 10.9 83.6 10.9 83.6 12.9 84.9 12.9 84.9 10.9 86.5 10.9 86.5 12.9 87.7 12.9 87.7 10.9 89.3 10.9 89.3 12.9 90.5 12.9 90.6 10.9 92.1 10.9 92.1 12.9 93.4 12.9 93.4 10.9 95 10.9 95 12.9 96.2 12.9 96.2 10.9 97.8 10.9 97.8 12.9 99 12.9 99 11 100.6 11 100.6 12.9 101.9 12.9 101.9 11 103.5 11 103.4 12.9 104.7 12.9 104.7 11 106.3 11 106.3 12.9 107.5 12.9 107.5 11 109.1 11 109.1 12.9 110.4 13 110.4 11 111.9 11 111.9 13 113.2 13 113.2 11 114.8 11 114.8 13 116 13 116 11 117.6 11 117.6 13 118.9 13 118.9 11 120.4 11 120.4 13 121.7 13 121.7 11 123.3 11 123.3 13 124.5 13 124.5 11 126.1 11 126.1 13 127.4 13 127.4 11 128.9 11 128.9 13 130.2 13 130.2 11 131.8 11 131.8 13 133 13 133 11 134.6 11.1 134.6 13 135.8 13 135.9 11.1 137.4 11.1 137.4 13 138.7 13 138.7 11.1 140.3 11.1 140.2 13 141.5 13 141.5 11.1 143.1 11.1 143.1 13 144.3 13 144.3 11.1 145.9 11.1 145.9 13.1 147.2 13.1 147.2 11.1 148.7 11.1 148.7 13.1 150 13.1 150 11.1 151.6 11.1 151.6 13.1 152.8 13.1 152.8 11.1 154.4 11.1 154.4 13.1 155.7 13.1 155.7 11.1 157.2 11.1 157.2 13.1 158.5 13.1 158.5 11.1 160.1 11.1 160.1 13.1 161.3 13.1 161.3 11.1 162.9 11.1 162.9 13.1 164.2 13.1 164.2 11.1 165.7 11.1 165.7 13.1 167 13.1 167 11.1 168.6 11.2 168.6 13.1 169.8 13.1 169.8 11.2 171.4 11.2 171.4 13.1 172.6 13.1 172.7 11.2 174.2 11.2 174.2 13.1 175.5 13.1 175.5 11.2 177.1 11.2 177 13.1 178.3 13.1 178.3 11.2 179.9 11.2 179.9 13.2 181.1 13.2 181.1 11.2 182.7 11.2 182.7 13.2 184 13.2 184 11.2 185.5 11.2 185.5 13.2 186.8 13.2 186.8 11.2 188.4 11.2 188.4 13.2 189.6 13.2 189.6 11.2 191.2 11.2 191.2 13.2 192.5 13.2 192.5 11.2 194 11.2 194 13.2 195.3 13.2 195.3 12.6 195.3 8.1 "/></svg>