<?xml version="1.0" encoding="utf-8"?>
<!-- Generator: Adobe Illustrator 27.8.0, SVG Export Plug-In . SVG Version: 6.00 Build 0)  -->
<svg version="1.1" id="Layer_1" xmlns="http://www.w3.org/2000/svg" xmlns:xlink="http://www.w3.org/1999/xlink" x="0px" y="0px"
	 viewBox="0 0 400 400" style="fill: rgba(0, 0, 0, 0.2);" xml:space="preserve">
<g>
	<path d="M316.6,203.3c-0.3,3.2,1.6,5.2,2.2,7.4c-4.2,1.9-8.4,3.9-12.6,5.8c-2.1,1-3.4,2.6-4,4.7c-1.1,3.7-2.1,7.5-3.1,11.2
		c-1.5,5.3-3.9,10.1-7.6,14.2c-1.9,2.2-4.4,4-6.9,5.5c-3.3,1.9-6.7,3.6-9.2,6.6c-1.7,2.1-1.9,3.5-0.2,5.6c1.9,2.3,4,4.5,6.2,6.5
		c0.9,0.8,2.2,1,3.4,1.4c3.5,1.1,7,2.1,10.5,3.1c1,0.3,2,0.7,3,0.9c3.1,0.7,5.3-0.6,6.4-3.6c0.3-0.7,0.5-1.5,0.5-2.2
		c0.3-2.9,1.8-4.8,4.2-6.3c3.5-2.1,6.5-4.9,8.9-8.3c0.4-0.6,1.7-1,2.5-0.9c2.2,0.2,4.4,0.7,6.5,1.2c3.2,0.9,5.2,5.4,3.8,9
		c-0.8,2-2,3.8-3,5.7c-0.8,1.4-1.6,2.8-0.5,4.2c1.1,1.5,2.7,1,4.2,0.5c3-0.9,5.3-0.3,6.9,1.8c1.8,2.4,1.9,6.5,0.3,8.6
		c-1.4,1.9-4.7,2.7-7.4,1.8c-0.5-0.2-1-0.6-1.5-0.6c-1.2,0-2.8-0.2-3.6,0.4c-1.2,0.9-1.7,2.7-0.7,4.1c0.7,1.1,1.8,2,2.8,3
		c0.4,0.4,0.9,0.6,1.4,0.9c3.8,2.3,5.3,5.2,4.2,8.5c-1.2,3.6-5,5.8-9.2,5.2c-2.8-0.4-5-1.9-7.1-4c-4.1-4.1-8.5-7.9-13.1-11.5
		c-1.3-1-3.7-1-5.5-0.9c-4.3,0.3-8.6,1.4-13,1.3c-4.9,0-5.1-0.6-5.3-5.5c0-0.5-0.1-1.1-0.2-2.2c-1.5,1.4-2.7,2.5-3.9,3.5
		c-0.8,0.6-1.8,0.9-2.7,1.3c-0.3-0.9-0.7-1.7-1-2.6c-0.1-0.3,0-0.6-0.1-0.8c-1.2-2.8-0.2-4.8,2.1-6.4c0.1-0.1,0.2-0.4,0.2-0.5
		c-2.1-2.4-3.4-2.3-5.1,0.1c-0.8,1.3-1.6,2.6-2.5,3.9c-1,1.4-2.1,1.6-3.2,0.1c-2.8-4-5.6-7.9-8.2-12c-1.7-2.7-3.8-3.3-6.6-1.5
		c-2.1,1.4-4.4,2.5-6.7,3.6c-3.7,1.7-7.5,3.2-11.3,4.7c-3.5,1.4-7,1.8-10.9,1.4c-4.5-0.5-9.1,0.6-13.7,0.7
		c-3.6,0.1-7.2-0.3-10.8-0.5c-0.4,0-0.7-0.5-1-0.8c-0.2-0.3-0.2-0.7-0.4-1c-0.7-1-1.4-1.9-2.1-2.8c-0.8,0.8-1.6,1.6-2.4,2.4
		c-0.4,0.5-0.6,1.3-1.1,1.7c-0.5,0.4-1.4,0.5-2,0.4c-2.7-0.6-5.3-1.6-8-1.9c-3.9-0.4-7.4-1.3-10.5-3.9c-1.1-0.9-2.8-1.2-4.2-1.5
		c-1.7-0.3-3.5-0.5-5.2-0.4c-2.7,0.2-4.4-1-5.8-3c-1.3-1.9-2.5-3.9-3.8-5.7c-1.4-2-2.9-2-4.2,0.1c-0.6,0.9-0.8,2.2-1,3.3
		c-0.4,1.6-0.4,3.3-1,4.7c-1.6,3.5-3.4,6.8-5.1,10.2c-0.7,1.5-2,1.4-3.2,1.1c-2.1-0.6-4.1-1.4-6.1-2c-0.9-0.2-2.4-0.5-2.7,0
		c-0.5,0.7-0.5,2-0.2,2.9c0.7,1.7,1.6,3.4,2.7,4.8c1.2,1.7,1.2,2.9-0.7,3.1c-4.4,0.6-8.7,3.2-13.4,1.1c-1.5-0.7-3.4-0.6-5.1-0.4
		c-3.5,0.4-6.9,0.2-10.3-0.6c-4.2-1-5.4-0.3-6.2,4c-0.7,3.4-1,6.9-1.7,10.3c-0.9,4.7-3.1,5.9-7.9,5.2c-6.3-0.8-6.8-4.5-6.3-10
		c0.3-3.3-0.4-3.4-3.2-3.2c-1.3,0.1-2.6,0.4-3.9,0.6c-2.4,0.3-4.1-0.3-4.7-2.7c-0.7-2.8-1-5.7-0.9-8.6c0-1.1,1.4-2.3,2.4-3.1
		c1.5-1.2,3.4-2,4.9-3.2c0.7-0.6,1.4-1.9,1.3-2.7c-0.1-0.7-1.3-1.4-2.2-1.7c-0.9-0.4-2-0.4-3.1-0.6c-2.8-0.6-4.3-2.8-3-5.4
		c0.7-1.5,2.1-3,3.6-3.7c2.7-1.2,5.7-1.3,8.6-0.5c2,0.5,3.6,1.6,4.4,3.7c1,2.7,3.4,3.8,6.1,4.5c2,0.5,3.9,1.5,5.9,2.2
		c1.3,0.5,2.7,1.2,4,1.2c4.1,0,8.2-0.3,12.2-0.5c2.5-0.1,4.5-1.2,6.1-3.1c2.6-2.9,5.4-5.6,7.8-8.7c1.3-1.7,2.1-3.8,3.3-5.6
		c1.2-1.9,2.5-3.8,3.9-5.6c1-1.4,2.4-2.5,3.3-4c1.5-2.4,0.6-5-2.1-6.2c-6.3-2.8-9.5-8.1-11.2-14.4c-0.8-2.9-2-4.9-4.7-6.1
		c-2.2-1.1-4.4-2.4-6.5-3.6c-3.8-2.2-5.4-1.9-7.3,1.9c-1.8,3.6-3.4,7.4-4.9,11.2c-1.4,3.8-4,5.5-8,5.9c-6.7,0.8-13-0.1-18.9-3.3
		c-1.5-0.8-3.1-1.1-4.6-2c-1.5-0.9-3.1-1.9-4.3-3.2c-3.8-4.2-8.1-7.5-13.7-9.1c-3.9-1.2-6.5-3.9-8.2-7.5c-0.6-1.4-0.8-3.3-0.5-4.8
		c1.1-5.5,3.5-10.1,9.1-12.6c7.1-3.1,12.7-8,17.5-14.1c3.5-4.3,7.7-6.7,13.5-5.1c1.2,0.3,2.5,0.4,3.7,0.3c3.2-0.3,5.9,0.9,8.2,3
		c3,2.6,5.7,5.5,7.3,9.3c1,2.4,2.7,3.5,5.2,3.2c2-0.2,4-0.2,6-0.5c2-0.3,3.5-1.3,4.3-3.4c0.5-1.3,1.5-2.4,2.4-3.6
		c1.4-1.9,2.4-3.9,2.5-6.4c0.1-1.4,0.9-2.9,1.6-4.2c1.6-2.6,3.3-5.1,5-7.7c1.7-2.6,1.5-5-0.1-7.6c-1.5-2.4-2.7-4.9-5.7-6.2
		c-2-0.8-2.1-2.3-1-4.1c0.7-1.1,1.6-1.9,2.2-3c0.4-0.8,0.7-1.9,0.4-2.7c-0.7-2.1-1.9-2.3-3.5-0.7c-0.1,0.1-0.2,0.2-0.3,0.3
		c-2.9,3.2-3.5,3.3-7.3,1.3c-0.5-0.3-1.1-0.9-1.1-1.4c-0.1-2-1.5-3-2.8-4.2c-1.8-1.7-3.6-3.4-5.3-5.2c-2.2-2.2-5-3-7.9-3.4
		c-4.4-0.5-8.9-2-13.4-0.6c-2.8,0.8-5.4,2.1-8.1,3.2c-5,2.2-9.7-1-9.3-6.5c0-0.9,0.8-1.9,1.6-2.5c1.8-1.3,3.8-2.3,5.6-3.7
		c0.7-0.5,1.6-1.6,1.5-2.2c-0.2-0.8-1.2-1.7-2.1-2c-1.4-0.6-3-0.7-4.4-1.1c-2.1-0.5-3.1-1.8-3-3.9c0.2-3.2,1.6-5.8,4.2-7.5
		c2.1-1.4,4.2-1,6,0.7c1.8,1.8,4.7,1.9,6.6,0.4c1.5-1.3,1.6-3.4,0-5.6c-0.9-1.2-1.9-2.4-3-3.5c-2.9-3.1-1.9-6.8,2.2-8
		c5.6-1.8,12.3,2.4,13,8.4c0.4,3.6,2,6,4.9,7.7c2.9,1.7,4.8,4.1,6.1,7.1c0.6,1.4,1.7,2.7,2.9,3.8c1.1,1,1.4,2,1,3.3
		c-0.4,1.4-0.9,2.8-1.2,4.2c-0.4,2,0.5,3,2.5,2.7c1.4-0.3,2.9-0.8,3.9-1.7c1.4-1.5,3-1.7,4.5-1c1.9,0.9,3.9,1.9,5.5,3.3
		c4.2,3.8,8.2,7.6,13.2,10.5c2.3,1.3,4.2,3.6,6,5.6c2,2.3,2.5,2.3,4.4,0c0.9-1.1,2.4-1.9,3.8-2.4c6.1-2.4,12.3-4.3,18.3-6.9
		c4.5-2,8.9-2.2,13.6-0.9c1.3,0.3,2.7,0.1,4.1-0.1c4.1-0.3,8.1-0.7,12.2-1c0.7,0,1.6,0.2,2.2,0.7c2.4,1.8,5,1.9,7.5,0.7
		c4.7-2.2,9.2-2.3,14.2-0.3c2.4,1,5.5,0.2,8.2,0.5c5.1,0.7,10.1,1.6,15.2,2.4c1.4,0.2,2.8,0.2,4.1,0c3.2-0.4,6,0.2,8.2,2.5
		c1.5,1.5,2.6,1.3,3.8-0.1c1.8-2.3,3.7-4.5,5.3-6.9c2.1-3.1,4.9-5.4,8.3-7c7.1-3.4,14.3-6.1,22.5-6c6.4,0.1,9-3.9,7.2-10.2
		c-0.6-2.1-1.5-4.2-2.3-6.2c-1.3-3.5-0.4-5.5,3.3-6.3c1.7-0.4,3.4-0.4,5.1-0.3c1.7,0.1,2.6,1.1,2.2,3c-0.4,2.5,0,4.9,1.3,7
		c1.2,2,3.1,2.4,4.7,0.8c1.4-1.4,2.4-3.2,3.4-4.9c1.1-1.8,1.8-3.8,3-5.5c1.5-2.2,3.7-2.4,5.8-0.7c3.5,2.8,4.1,5.9,1.6,9.6
		c-0.7,1.1-1.5,2.2-2.1,3.3c-1.3,2.5-0.2,4.6,2.7,4.9c1.6,0.2,3.2,0,4.8,0.2c2.8,0.3,4.2,1.8,3.9,4.6c-0.2,1.7-0.7,3.6-1.8,5
		c-2.9,3.8-6.2,7.1-10.6,9.1c-1.2,0.6-2.1,2.2-2.8,3.5c-1.7,3.2-3,3.3-5.3,0.5c-0.8-1-1.6-2-2.6-2.7c-1.3-0.9-2.1-0.5-2.2,1.1
		c0,0.2,0,0.4,0,0.6c0.3,3.5-0.5,4.4-4.1,4.7c-2.7,0.2-5.4,0.1-7.7-1.8c-0.5-0.4-1.6-0.6-1.9-0.3c-1.5,1.4-3,0.6-4.6,0.4
		c-1.5-0.3-3.2,0.1-4.7,0.3c-1.7,0.2-3.5,0.3-5.2,0.6c-1.1,0.2-2.5,0.4-3.2,1.2c-2.1,2.3-4,4.7-5.7,7.3c-1.2,1.7-0.5,3.5,1.1,4.8
		c0.4,0.3,0.8,0.7,1.2,0.8c7.9,2.8,11.8,9.7,16.3,15.8c2.1,2.8,2.9,6,2.7,9.6c-0.1,1.5,0.4,3.1,1.1,4.5c1.7,3.5,3.4,6.9,1.3,10.8
		c-0.2,0.5,0.1,1.3,0.3,1.9c0.3,0.6,0.9,1.1,1.3,1.6c1.7,2.5,2.1,2.5,4.3,0.5c1.3-1.2,2.3-2.6,3.6-3.7c1.3-1.1,2.7-2.1,4.3-2.6
		c4.4-1.5,8.9-2.8,13.4-4.2c0.8-0.2,1.7-0.7,2.4-0.5c3.9,1,7.6-0.3,11.3-1.1c0.4-0.1,0.9-0.1,1.2-0.1c5.2,1.2,10.1,3.2,14.2,6.4
		c3.3,2.6,2.6,7,1.9,10.9c-1.4,7.7-8.6,8.2-14,5.7c-2.2-1-3.9-1.6-5.8,0.2c-1.6,1.4-3.4,1.3-5.2,0.2c-1.2-0.8-2.4-1.6-3.7-2.4
		c-1.2-0.7-2-0.5-2.6,0.8c-0.9,2-1.7,2.4-3.7,1.3c-1.8-1-3.3-2.3-5-3.3C319.1,204.5,318,204,316.6,203.3z M226.9,255.8
		c1.4-1.1,2.5-2.8,3.9-3c6-1,11.9-2.4,17.3-5.4c2.3-1.3,4.5-2.8,7.4-2.4c0.6,0.1,1.4-0.8,1.9-1.4c0.8-1,1.4-2.2,2.3-3.2
		c0.7-0.7,1.5-1.4,2.4-1.8c3.8-1.8,7.7-3.5,11.4-5.4c2.4-1.2,3.9-3.2,4.6-5.9c0.6-2.3,1.5-4.6,2.3-6.9c3.4-9.5,4.9-19.2,2.3-29.2
		c-1.3-4.9-2.4-9.9-6.2-13.6c-3.9-3.8-5.9-9.3-11.1-12c-0.1,0-0.1-0.1-0.1-0.2c-5.7-5.3-12-9.2-20.1-9.1c-7.1,0-14.2,0.1-21.2,0
		c-1.8,0-3.9-0.2-5.4-1.1c-4.3-2.6-8.5-2.2-13-0.8c-2,0.6-4.3,0.8-6.2,0.2c-1.8-0.5-3-0.4-4.3,0.7c-2,1.7-4.1,1.7-6.3,0.2
		c-1-0.7-2-1.4-3-1.8c-0.4-0.2-1.6,0.4-1.6,0.7c-0.2,1.9-1.5,2.6-3,3c-1.8,0.5-3.7,0.7-5.5,1c-3.3,0.6-6.8,0.7-9.9,1.8
		c-4.9,1.7-9.5,4.1-14.3,6.2c-0.5,0.2-1,0.8-1.2,1.4c-1.4,4.5-4.3,7.8-7.8,11c-3.5,3.3-6.1,7.3-6.9,12.3c-0.4,2.7-0.4,5.7-1.5,8.1
		c-2.8,6.8-2.2,13.4,0.4,20c0.1,0.3,0.2,0.7,0.3,1c1.6,3.4,2.5,7.4,4.9,10.2c5.2,6.1,11.2,11.6,15,18.8c0.9,1.6,2.3,2.6,4.4,2.7
		c0.9,0,2,0.9,2.7,1.7c1.2,1.4,2.3,3,3.4,4.5c0.5,0.7,0.9,1.5,1.4,2.5c2.2-3.3,2.3-3.2,5.2-2.3c1.6,0.5,3.3,0.7,4.9,0.7
		c2.2-0.1,4.4-0.7,6.6-0.8c2.7-0.1,5.6-0.5,8,0.4c3.2,1.2,6.4,1.5,9.6,0.8c5.4-1.2,10.7-2.8,16.1-4.1
		C220.4,254.6,224,254.1,226.9,255.8z M250.5,258.3c-0.6,0.6-1.5,1.2-1.9,2.1c-0.2,0.4,0.8,1.3,1.4,1.9c0.3,0.3,0.7,0.4,1.1,0.5
		c2.4,1.1,2.4,1.1,2.9-1.5c0.1-0.6,0.5-1.1,0.8-1.6c0.5,0.3,1.2,0.4,1.4,0.9c1.1,1.9,2.3,1.3,3.6,0.2c2.1-1.7,2.5-3.4,1.2-4.7
		c-1.2-1.2-2.8-1.2-4.4,0.3C255.1,258,253.4,259.3,250.5,258.3z M94.6,207.2c-0.2-2.4-0.9-3.5-2.8-3.6c-1.7-0.1-3.4,1.3-3.2,3.3
		c0.3,2.1,1.1,4.2,2,6.2c0.6,1.3,1.9,1.2,2.4-0.3C93.7,211,94.1,209.1,94.6,207.2z M80.5,199.2c0,2.7,1.6,4.4,3.9,4.4
		c1.2,0,3.6-3.8,3.6-5.6c0-1.5-1-1.6-2.1-1.6C81.6,196.3,80.5,196.9,80.5,199.2z M110.3,203.8c0.1,0,0.3-0.1,0.4-0.1
		c-0.4-0.7-0.6-1.7-1.1-1.9c-1.5-0.8-4.6,1.6-4.2,3.2c0.5,2.1,1.3,4.1,2.2,6c0.2,0.5,1.2,0.7,1.8,1c0.3-0.6,0.8-1.3,0.8-1.9
		C110.4,207.9,110.3,205.8,110.3,203.8z M305.5,127.2c4.8-0.2,6.6-4,4.3-8.2c-0.3-0.5-0.9-1.1-1.5-1.2c-0.4-0.1-1.2,0.7-1.3,1.1
		C306.5,121.6,306,124.3,305.5,127.2z M65.3,208.6c-1.8,0-2.3,0.7-2.3,2.6c0,0.8-0.5,1.5-0.8,2.3c-0.3,0.8-0.8,1.5-0.9,2.3
		c-0.1,1.1,0.5,2.1,1.5,1.1c1.7-1.6,3.3-3.4,4.5-5.4C68.2,210.1,67,208.7,65.3,208.6z M302.8,206c-0.8-0.5-1.2-1.1-1.7-1.1
		c-1.9,0-3.8,0.1-5.7,0.3c-0.7,0.1-1.8,0.6-1.8,1c-0.1,0.7,0.3,1.7,0.9,2.1c0.6,0.5,1.7,0.7,2.4,0.5c1.5-0.4,2.8-1.1,4.2-1.7
		C301.7,206.9,302.1,206.6,302.8,206z M119.1,211c0.9-2,0.7-3.9-0.3-5.6c-0.9-1.4-2-1.3-2.9,0.1C114.5,207.7,115.8,210.1,119.1,211z
		 M145.5,152c-1.5,1.9-2.7,3.3-3.7,4.9c-0.2,0.3,0,1.2,0.3,1.6c0.2,0.3,1,0.2,1.5,0C145.5,157.7,146.4,155.3,145.5,152z M82.2,219.2
		c1,0.9,1.7,1.5,2.4,2.1c0.6-0.7,1.6-1.5,1.6-2.2c-0.1-0.9-1-1.7-1.6-2.5C83.9,217.4,83.3,218.1,82.2,219.2z M271.2,149.7
		c0.2-0.2,0.4-0.5,0.6-0.7c-0.6-1.3-1.1-2.6-1.7-3.9c-0.5,0.3-1.3,0.5-1.4,0.9c-0.4,0.9-0.9,2.3-0.5,2.8
		C268.9,149.4,270.2,149.4,271.2,149.7z M135.3,155.8c0.7,0.8,1.1,1.5,1.6,1.5c1.1,0.2,2.2-1.7,2.1-3.5c0-0.5-0.7-1-1-1.5
		C137.1,153.4,136.3,154.5,135.3,155.8z M93.9,220c-0.7-0.6-1.3-1.4-1.7-1.3c-0.7,0.1-1.3,0.7-1.9,1.1c0.6,0.8,1.3,1.5,1.9,2.3
		C92.7,221.5,93.1,220.9,93.9,220z M176,146.8c-1.4-0.6-2.2-1-3.1-1.2c-0.3,0-0.7,0.7-1.1,1.1c0.7,0.6,1.2,1.3,2,1.6
		C174.2,148.5,174.9,147.6,176,146.8z"/>
	<path d="M179.4,214.3c-1.3,0-2.4-0.1-3.4,0c-1.8,0.1-2.8-0.7-2.9-2.5c-0.1-3.8-0.3-7.6-0.1-11.4c0.1-1.6,0.8-3.2,1.5-4.7
		c1.8-3.6,3.8-7,5.8-10.6c0.1,0.1,0.5,0.3,0.9,0.6c1.6,0.9,2.4,0.6,2.9-1.2c0.4-1.6,0.6-3.3,0.7-4.9c0.2-2.6,1.5-4.4,3.9-5.1
		c5.8-1.7,11.5-3.7,17.7-3.2c2.2,0.2,4.5-0.6,6.8-0.9c1.3-0.2,2.6-0.3,3.9-0.3c0.6,0,1.7,0.3,1.8,0.7c1,2.3,2.3,2.1,4.2,1.1
		c1.1-0.6,2,0,2.4,1.2c0.2,0.6,0.2,1.2,0.4,1.8c0.6,2.1,1.3,2.3,3.1,1.2c0.6-0.4,1.7-0.4,2.3-0.1c5.2,2,8.1,6.4,10.7,10.9
		c2.8,4.8,5,9.7,4.9,15.5c0,1-0.1,2-0.3,2.9c-2.7,9.5-6.2,18.7-12.6,26.5c-0.4,0.5-1,1.1-1.5,1.4c-6.8,3.5-13.6,6.9-21.7,7.1
		c-6.6,0.2-12.2-1.2-17.7-5.1c-4.2-3.1-8.5-5.9-12.3-9.5c-3.8-3.6-4.1-5.3-1.7-10C179.2,215.3,179.3,215,179.4,214.3z M202.7,223.1
		c0.3,0,0.5,0.1,0.8,0.1c0.1-0.2,0.2-0.5,0.4-0.7c1.7-3.1,1.7-3.1,5.2-2.8c8,0.7,15.4-0.3,20.5-7.5c0.8-1.2,1.7-2.7,1.6-4
		c-0.1-2.7-0.8-5.3-1.1-8c-0.5-4.3-2.8-6.2-7.1-5.8c-3.3,0.3-6-0.5-8.3-3.2c-3.1-3.8-7.3-4.6-11.8-2.7c-2.5,1-5,2-7.4,3.2
		c-3.9,1.9-6.2,6.4-5.1,10.5c0.9,3.3,2.2,6.6,3.4,9.8c0.9,2.3,2.3,3.9,5.1,4.2c2.7,0.3,3,1.2,3.2,3.9
		C202,221.1,202.5,222.1,202.7,223.1z M219.8,228.9c-0.2-0.2-0.5-0.4-0.7-0.6c-1.2,0.4-2.4,0.8-3.6,1.3c-0.4,0.2-0.9,1.1-0.8,1.5
		c0.1,0.6,0.8,1.3,1.3,1.4c0.9,0.1,2.2,0,2.8-0.6C219.4,231.2,219.5,229.9,219.8,228.9z M181.6,198.9c0.3,0.1,0.5,0.2,0.8,0.4
		c0.7-0.7,1.8-1.2,2-2c0.2-0.9-0.3-2-0.5-3c-0.7,0.5-1.6,0.9-1.9,1.6C181.6,196.7,181.8,197.9,181.6,198.9z M188.7,188.2
		c0.2,0.2,0.4,0.4,0.6,0.6c0.9-0.5,1.7-0.9,3.1-1.7c-1.2-0.6-2.2-1.4-2.4-1.2C189.4,186.5,189.1,187.4,188.7,188.2z M222,229
		c0.2,0,0.4,0,0.6,0c0.4-0.7,0.8-1.3,1.4-2.4c-1.2,0-2,0-2.8,0C221.5,227.4,221.7,228.2,222,229z"/>
</g>
</svg>
