<svg width="20" height="20" viewBox="0 0 20 20" fill="none" xmlns="http://www.w3.org/2000/svg">
<g clip-path="url(#clip0_2225_1113)">
<path fill-rule="evenodd" clip-rule="evenodd" d="M5.95487 0.933839C5.6841 0.933402 5.42211 1.02997 5.21639 1.20606C5.01048 1.38232 4.87459 1.62657 4.8334 1.89447L4.23904 5.76949C4.23903 5.76955 4.23905 5.76944 4.23904 5.76949C4.22994 5.82872 4.22173 5.8882 4.21447 5.94757C4.2129 5.95819 4.21161 5.96891 4.21063 5.97972C4.1004 6.92487 4.22312 7.88382 4.56952 8.77239C4.94164 9.72693 5.55876 10.5665 6.35869 11.2066C7.24399 11.9149 8.31323 12.347 9.43359 12.4564V17.926H7.73437C7.42155 17.926 7.16796 18.1796 7.16796 18.4924C7.16796 18.8053 7.42155 19.0588 7.73437 19.0588H12.2656C12.5784 19.0588 12.832 18.8053 12.832 18.4924C12.832 18.1796 12.5784 17.926 12.2656 17.926H10.5664V12.4564C11.6868 12.347 12.756 11.9149 13.6413 11.2067C14.4412 10.5666 15.0583 9.72693 15.4305 8.77239C15.7769 7.88384 15.8996 6.92491 15.7894 5.97978C15.7884 5.96893 15.7871 5.95817 15.7855 5.94751C15.7782 5.8881 15.7701 5.82876 15.7609 5.76949L15.1651 1.89447C15.124 1.62709 14.9885 1.38324 14.7832 1.20705C14.5779 1.03085 14.3164 0.933942 14.0459 0.933839H5.95487ZM14.568 5.46509L14.0454 2.06665H5.95434L5.95305 2.06665L5.43179 5.46509H14.568ZM5.30455 6.5979C5.29724 7.19866 5.40526 7.79737 5.62497 8.36093C5.92477 9.12996 6.42195 9.8064 7.06641 10.3221M5.30455 6.5979H14.6954C14.7027 7.19866 14.5947 7.79737 14.375 8.36093C14.0752 9.12998 13.578 9.80643 12.9335 10.3221C12.1009 10.9883 11.0663 11.3512 9.99999 11.3512C8.93367 11.3512 7.89906 10.9882 7.06641 10.3221" fill="black"/>
</g>
<defs>
<clipPath id="clip0_2225_1113">
<rect width="20" height="20" fill="white" transform="translate(0 -0.00366211)"/>
</clipPath>
</defs>
</svg>
